<?xml version="1.0" encoding="UTF-8" standalone="no"?>
<svg
   xmlns:dc="http://purl.org/dc/elements/1.1/"
   xmlns:cc="http://creativecommons.org/ns#"
   xmlns:rdf="http://www.w3.org/1999/02/22-rdf-syntax-ns#"
   xmlns:svg="http://www.w3.org/2000/svg"
   xmlns="http://www.w3.org/2000/svg"
   xmlns:xlink="http://www.w3.org/1999/xlink"
   xmlns:sodipodi="http://sodipodi.sourceforge.net/DTD/sodipodi-0.dtd"
   xmlns:inkscape="http://www.inkscape.org/namespaces/inkscape"
   sodipodi:docname="app-logo.svg"
   inkscape:version="1.0 (4035a4fb49, 2020-05-01)"
   id="svg1135"
   version="1.1"
   viewBox="0 0 150 50"
   height="50mm"
   width="150mm">
  <defs
     id="defs1129">
    <pattern
       inkscape:collect="always"
       xlink:href="#pattern276"
       id="pattern2093"
       patternTransform="matrix(7.3213816,0,0,7.3213816,-731.93493,6831.9592)" />
    <rect
       x="158.84422"
       y="215.44518"
       width="382.65091"
       height="351.91684"
       id="rect859" />
    <pattern
       id="pattern276"
       height="456.229"
       width="781.5"
       y="0"
       x="0"
       patternUnits="userSpaceOnUse"
       patternTransform="matrix(10,0,0,10,0,2875)">
      <g
         id="g274"
         transform="scale(0.1)">
        <g
           id="g272">
          <g
             id="g270"
             clip-path="url(#clipPath18)">
            <path
               id="path20"
               style="fill:#2e3535;fill-opacity:1;fill-rule:nonzero;stroke:none"
               d="m 6750.12,1150.78 c 126.48,-17.08 255.11,-25.74 382.65,-25.74 127.54,0 256.18,8.66 382.66,25.74 l -92.4,649.3 c -24.53,-3.26 -49.12,-6.1 -73.77,-8.53 l 0,-42.69 c 13.28,-7.17 22.42,-21.05 22.42,-37.2 0,-23.44 -19,-42.42 -42.42,-42.42 -23.44,0 -42.44,18.98 -42.44,42.42 0,16.15 9.14,30.03 22.44,37.2 l 0,39.15 c -117.33,-9.4 -235.67,-9.4 -352.97,0 l 0,-39.15 c 13.28,-7.17 22.42,-21.05 22.42,-37.2 0,-23.44 -19,-42.42 -42.42,-42.42 -23.44,0 -42.42,18.98 -42.42,42.42 0,16.15 9.12,30.04 22.42,37.2 l 0,42.69 c -24.65,2.43 -49.26,5.27 -73.77,8.53 l -92.4,-649.3 z m 207.05,677.35 c 116.72,-9.47 234.53,-9.46 351.25,0 -3.93,40.59 -21.62,78.24 -50.84,107.46 -33.34,33.32 -77.66,51.68 -124.81,51.68 -91.46,0 -166.87,-69.95 -175.6,-159.14 z m -245.69,-706.4 c -3.18,4.24 -4.55,9.58 -3.8,14.82 l 98.04,688.87 c 0.74,5.25 3.56,9.99 7.8,13.17 4.23,3.19 9.53,4.57 14.82,3.81 29.55,-4.2 59.22,-7.71 88.98,-10.68 10.57,109.59 103.15,195.55 215.45,195.55 57.84,0 112.21,-22.52 153.09,-63.4 35.92,-35.92 57.62,-82.23 62.38,-132.15 29.75,2.97 59.42,6.48 88.95,10.68 5.31,0.74 10.58,-0.62 14.84,-3.81 4.24,-3.18 7.03,-7.92 7.79,-13.17 l 98.03,-688.87 c 1.56,-10.93 -6.05,-21.06 -16.97,-22.61 -134.73,-19.17 -272.03,-28.9 -408.11,-28.9 -136.07,0 -273.38,9.73 -408.1,28.9 -5.26,0.75 -10,3.54 -13.19,7.79" />
            <path
               id="path22"
               style="fill:#2e3535;fill-opacity:1;fill-rule:nonzero;stroke:none"
               d="m 7714.73,2395.83 117.24,0 143.3,-693.21 c 1.92,-9.3 10.1,-15.96 19.59,-15.96 l 746.12,0 c 9.45,0 17.61,6.62 19.57,15.86 l 100,473.34 c 1.23,5.91 -0.24,12.05 -4.05,16.74 -3.79,4.68 -9.51,7.4 -15.52,7.4 l -606.39,0 c -11.05,0 -20,-8.96 -20,-20 0,-11.04 8.95,-20 20,-20 l 581.72,0 -58.07,-274.8 -584.51,0 c -11.05,0 -20,-8.96 -20,-20 0,-11.05 8.95,-20 20,-20 l 576.06,0 -25.04,-118.54 -713.6,0 -56.89,275.2 577.22,0 c 11.06,0 20,8.96 20,20 0,11.05 -8.94,20 -20,20 l -585.48,0 -78.15,378.02 c -1.91,9.29 -10.1,15.95 -19.59,15.95 l -133.53,0 c -11.06,0 -20,-8.95 -20,-20 0,-11.04 8.94,-20 20,-20" />
            <path
               id="path24"
               style="fill:#2e3535;fill-opacity:1;fill-rule:nonzero;stroke:none"
               d="m 6813.2,96.0859 117.17,-77.0351 0,194.2032 L 6813.2,96.0859 Z m 157.17,157.1561 0,-260.48028 83.97,-55.20312 0.02,399.6754 -83.99,-83.992 z m 123.99,121.446 0,-463.4185 83.96,-55.2145 0.02,605.156 -84.22,-84.207 c 0.08,-0.774 0.24,-1.516 0.24,-2.316 z m 123.96,126.523 0,-612.832 84.2,84.1991 c -0.08,0.6641 -0.2,1.3086 -0.22,1.9922 l 0.02,610.6327 -84,-83.992 z m 124,121.98 -0.02,-610.8277 84.28,84.289 c -0.13,0.9532 -0.29,1.9141 -0.29,2.9063 l 0,609.6214 -84.16,-84.16 c 0.06,-0.618 0.19,-1.204 0.19,-1.829 z m 123.97,74.211 0,-561.047 83.96,83.965 0,346.289 c 0,0.539 0.12,1.067 0.16,1.594 l -84.12,129.199 z m 123.96,-190.382 0,-246.7 97.29,97.285 -97.29,149.415 z M 6779.06,118.523 7435.04,774.48 c 4.26,4.27 10.21,6.379 16.21,5.754 6,-0.625 11.39,-3.925 14.69,-8.984 l 263.98,-405.398 c 5.16,-7.922 4.06,-18.372 -2.62,-25.051 l -527.57,-527.586 c -6.72,-6.711 -17.21,-7.785 -25.14,-2.57 l -111.39,73.21 c -0.02,0.024 -0.04,0.04 -0.07,0.051 l -290,190.6526 c -1.74,0.8008 -3.4,1.875 -4.89,3.207 L 6583.1,199.48 6500.19,116.57 c -7.82,-7.8 -20.47,-7.8 -28.29,0 -7.81,7.817 -7.81,20.481 0,28.293 l 94.42,94.422 c 6.7,6.711 17.21,7.785 25.14,2.57 l 187.6,-123.332" />
            <path
               id="path26"
               style="fill:#2e3535;fill-opacity:1;fill-rule:nonzero;stroke:none"
               d="m 7750.35,216.094 c -12.22,12.234 -32.13,12.226 -44.37,-0.008 -12.23,-12.219 -12.21,-32.109 0.02,-44.348 12.22,-12.226 32.13,-12.234 44.33,-0.008 12.25,12.223 12.25,32.137 0.02,44.364 z m 28.26,-72.649 c -27.81,-27.832 -73.08,-27.808 -100.9,0 -27.83,27.832 -27.85,73.098 -0.01,100.93 27.83,27.832 73.12,27.832 100.93,0.012 27.83,-27.824 27.83,-73.11 -0.02,-100.942" />
            <path
               id="path28"
               style="fill:#2e3535;fill-opacity:1;fill-rule:nonzero;stroke:none"
               d="m 6187.61,560.84 c -0.96,1.223 -1.82,2.5 -2.95,3.613 -1.13,1.133 -2.4,2 -3.63,2.969 -12.06,9.512 -28.23,11.133 -41.68,4.773 -4.07,-1.902 -7.91,-4.382 -11.27,-7.742 -15.59,-15.586 -15.59,-40.969 0,-56.562 15.6,-15.606 40.97,-15.606 56.56,0 3.36,3.347 5.84,7.199 7.75,11.257 6.35,13.469 4.73,29.622 -4.78,41.692 z M 5705.48,314.727 5934.91,85.2852 6288,438.379 l 35.33,177.715 0.39,1.972 -27.48,27.493 -30.49,30.496 c -27.63,-28.418 -48.44,-53.789 -63.28,-74.602 3.65,-2.586 7.19,-5.437 10.47,-8.711 3.26,-3.269 6.11,-6.804 8.71,-10.469 8.34,-11.804 13.14,-25.339 14.34,-39.168 1.97,-22.734 -5.71,-46.14 -23.05,-63.496 -31.19,-31.191 -81.95,-31.191 -113.15,0 -31.19,31.192 -31.19,81.946 0,113.133 17.37,17.356 40.77,25.031 63.52,23.059 22.72,33.554 53.26,66.992 72.97,87.344 L 6058.56,667.813 5705.48,314.727 Z m 588.81,389.343 29.98,-29.968 c 47.42,50.703 72.3,90.546 79.47,109.453 -18.91,-7.168 -58.75,-32.051 -109.45,-79.485 z M 5663.06,300.586 c -7.82,7.812 -7.82,20.469 0,28.281 l 371.52,371.524 c 2.91,2.91 6.48,4.726 10.23,5.468 l 0,0 196.14,38.996 c 6.54,1.297 13.32,-0.753 18.02,-5.48 l 7.02,-7.004 c 46.99,44.152 136.34,118.801 170.88,84.289 34.49,-34.512 -40.14,-123.879 -84.3,-170.859 l 6.99,-7 c 4.73,-4.719 6.78,-11.496 5.47,-18.039 l -38.99,-196.133 0,0 c -0.74,-3.75 -2.55,-7.332 -5.46,-10.242 L 5949.07,42.8594 c -3.77,-3.7578 -8.85,-5.8555 -14.16,-5.8555 -5.29,0 -10.39,2.1055 -14.14,5.8555 L 5663.06,300.586" />
            <path
               id="path30"
               style="fill:#2e3535;fill-opacity:1;fill-rule:nonzero;stroke:none"
               d="m 3807.23,114.688 117.24,0 143.3,-693.211 c 1.92,-9.297 10.1,-15.957 19.59,-15.957 l 746.12,0 c 9.45,0 17.61,6.621 19.57,15.867 l 100,473.34 c 1.23,5.898 -0.24,12.0425 -4.05,16.73 -3.79,4.6875 -9.51,7.3985 -15.52,7.3985 l -606.39,0 c -11.05,0 -20,-8.9532 -20,-20.0005 0,-11.043 8.95,-20 20,-20 l 581.72,0 -58.07,-274.8 -584.51,0 c -11.05,0 -20,-8.957 -20,-20 0,-11.047 8.95,-20 20,-20 l 576.06,0 -25.04,-118.535 -713.6,0 -56.89,275.203 577.22,0 c 11.06,0 20,8.957 20,20 0,11.047 -8.94,20 -20,20 l -585.48,0 -78.15,378.015 c -1.91,9.289 -10.1,15.95 -19.59,15.95 l -133.53,0 c -11.06,0 -20,-8.958 -20,-20 0,-11.043 8.94,-20 20,-20" />
            <path
               id="path32"
               style="fill:#2e3535;fill-opacity:1;fill-rule:nonzero;stroke:none"
               d="m 1112.44,275.188 -146.366,676.816 -79.453,0 0,-40.285 c 11.328,-6.824 18.984,-19.121 18.984,-33.321 0,-21.543 -17.441,-38.996 -38.984,-38.996 -21.523,0 -39.004,17.453 -39.004,38.996 0,14.192 7.676,26.485 19.004,33.313 l 0,40.293 -260.547,0 0,-40.285 c 11.328,-6.817 19.004,-19.121 19.004,-33.321 0,-21.543 -17.461,-38.996 -39.004,-38.996 -21.523,0 -38.984,17.453 -38.984,38.996 0,14.192 7.656,26.485 18.984,33.301 l 0,40.305 -79.433,0 -146.387,-676.816 792.186,0 z m -526.249,716.816 260.313,0 c -0.586,33.916 -13.984,65.726 -38.027,89.786 -24.61,24.61 -57.325,38.15 -92.129,38.15 -71.055,0 -128.907,-57.19 -130.157,-127.936 z m 551.039,-756.816 -841.761,0 c -6.055,0 -11.778,2.734 -15.567,7.441 -3.808,4.707 -5.273,10.879 -3.984,16.785 L 430.957,976.23 c 1.992,9.2 10.137,15.774 19.551,15.774 l 95.683,0 c 1.27,92.796 77.051,167.936 170.157,167.936 45.488,0 88.261,-17.7 120.41,-49.86 31.621,-31.62 49.16,-73.48 49.746,-118.076 l 95.703,0 c 9.414,0 17.559,-6.574 19.553,-15.774 l 155.02,-716.816 c 1.29,-5.918 -0.18,-12.078 -3.99,-16.785 -3.79,-4.707 -9.51,-7.441 -15.56,-7.441" />
            <path
               id="path34"
               style="fill:#2e3535;fill-opacity:1;fill-rule:nonzero;stroke:none"
               d="m -100.273,2395.83 117.2457,0 143.3003,-693.21 c 1.915,-9.3 10.098,-15.96 19.59,-15.96 l 746.114,0 c 9.453,0 17.617,6.62 19.57,15.86 l 100.003,473.34 c 1.23,5.91 -0.24,12.05 -4.05,16.74 -3.79,4.68 -9.51,7.4 -15.52,7.4 l -606.39,0 c -11.055,0 -20,-8.96 -20,-20 0,-11.04 8.945,-20 20,-20 l 581.72,0 -58.068,-274.8 -584.512,0 c -11.054,0 -20,-8.96 -20,-20 0,-11.05 8.946,-20 20,-20 l 576.055,0 -25.039,-118.54 -713.594,0 -56.894,275.2 577.226,0 c 11.055,0 20,8.96 20,20 0,11.05 -8.945,20 -20,20 l -585.488,0 -78.1444,378.02 c -1.9141,9.29 -10.0977,15.95 -19.5899,15.95 l -133.5347,0 c -11.055,0 -20,-8.95 -20,-20 0,-11.04 8.945,-20 20,-20" />
            <path
               id="path36"
               style="fill:#2e3535;fill-opacity:1;fill-rule:nonzero;stroke:none"
               d="m 822.715,1550.82 c 17.305,0 31.387,14.07 31.387,31.37 0,17.29 -14.082,31.36 -31.387,31.36 -17.285,0 -31.348,-14.07 -31.348,-31.36 0,-17.3 14.063,-31.37 31.348,-31.37 z m 0,-40 c -39.336,0 -71.348,32.01 -71.348,71.37 0,39.35 32.012,71.36 71.348,71.36 39.355,0 71.387,-32.01 71.387,-71.36 0,-39.36 -32.032,-71.37 -71.387,-71.37" />
            <path
               id="path38"
               style="fill:#2e3535;fill-opacity:1;fill-rule:nonzero;stroke:none"
               d="m 275.469,1550.82 c 17.285,0 31.367,14.07 31.367,31.37 0,17.29 -14.082,31.36 -31.367,31.36 -17.305,0 -31.367,-14.07 -31.367,-31.36 0,-17.3 14.062,-31.37 31.367,-31.37 z m 0,-40 c -39.356,0 -71.367,32.01 -71.367,71.37 0,39.35 32.011,71.36 71.367,71.36 39.355,0 71.367,-32.01 71.367,-71.36 0,-39.36 -32.012,-71.37 -71.367,-71.37" />
            <path
               id="path40"
               style="fill:#2e3535;fill-opacity:1;fill-rule:nonzero;stroke:none"
               d="m 1255,-704.922 -286.777,198.75 198.747,-286.758 c 11.62,-11.015 26.76,-17.07 42.83,-17.07 16.63,0 32.27,6.484 44.03,18.242 23.87,23.867 24.26,62.481 1.17,86.836 z M 939.961,-255.41 c 0,59.433 -23.125,115.293 -65.156,157.3241 -42.032,42.0117 -97.891,65.1562 -157.325,65.1562 -59.433,0 -115.292,-23.1445 -157.324,-65.1562 -42.031,-42.0311 -65.176,-97.9101 -65.176,-157.3441 0,-59.414 23.145,-115.293 65.157,-157.324 42.031,-42.012 97.89,-65.156 157.324,-65.156 59.434,0 115.293,23.144 157.324,65.176 42.031,42.031 65.176,97.89 65.176,157.324 z m 342.149,-420.039 c 39.86,-39.864 39.86,-104.727 0,-144.59 -19.32,-19.316 -45,-29.961 -72.31,-29.961 -27.3,0 -52.98,10.645 -72.3,29.961 -0.86,0.84 -1.62,1.758 -2.3,2.734 L 885.508,-457.031 C 838.398,-496.426 779.59,-517.91 717.461,-517.91 l 0,0 c -70.117,0 -136.035,27.305 -185.606,76.875 -49.57,49.59 -76.875,115.508 -76.875,185.625 0,70.097 27.305,136.015 76.895,185.6053 49.57,49.5703 115.488,76.87501 185.605,76.87501 70.118,0 136.036,-27.30471 185.606,-76.87501 49.59,-49.5703 76.894,-115.4883 76.875,-185.6053 0,-62.129 -21.484,-120.938 -60.879,-168.047 l 360.278,-249.688 c 0.99,-0.683 1.91,-1.445 2.75,-2.304" />
            <path
               id="path42"
               style="fill:#2e3535;fill-opacity:1;fill-rule:nonzero;stroke:none"
               d="m 2417.27,898.496 c 0,29.141 -41.51,103.984 -71.25,150.414 l -767.58,0 c -29.73,-45.69 -71.17,-119.926 -71.17,-150.414 0,-40.644 34.35,-74.988 75,-74.988 41.36,0 75,33.64 75,74.988 0,11.055 8.96,20 20,20 11.05,0 20,-8.945 20,-20 0,-41.348 33.65,-74.988 75,-74.988 41.36,0 75,33.64 75,74.988 0,11.055 8.96,20 20,20 11.05,0 20,-8.945 20,-20 0,-41.348 33.65,-74.988 75,-74.988 41.36,0 75,33.64 75,74.988 0,11.055 8.96,20 20,20 11.05,0 20,-8.945 20,-20 0,-41.348 33.65,-74.988 75,-74.988 41.36,0 75,33.64 75,74.988 0,11.055 8.96,20 20,20 11.05,0 20,-8.945 20,-20 0,-41.348 33.65,-74.988 75,-74.988 39.25,0 75,35.75 75,74.988 z m -87.91,-114.219 c -34.05,3.828 -63.66,22.559 -82.09,49.532 -20.73,-30.332 -55.57,-50.301 -95,-50.301 -39.44,0 -74.28,19.969 -95,50.301 -20.73,-30.332 -55.57,-50.301 -95,-50.301 -39.44,0 -74.28,19.969 -95,50.301 -20.73,-30.332 -55.57,-50.301 -95,-50.301 -39.44,0 -74.28,19.969 -95,50.301 -16.76,-24.524 -42.74,-42.227 -72.91,-48.125 l 0,-217.176 185,0 0,125 c 0,11.043 8.96,20 20,20 l 520,0 0,70.769 z m 0,-110.769 -500,0 0,-457.5 500,0 0,457.5 z m -540,-145 -185,0 0,-312.5 185,0 0,312.5 z m 667.91,369.988 c 0,-51.992 -38.75,-98.418 -87.91,-111.328 l 0,-591.16 c 0,-11.047 -8.95,-20 -20,-20 l -765,0 c -11.04,0 -20,8.953 -20,20 l 0,589.109 c -54.16,8.906 -97.09,57.141 -97.09,113.379 0,55.332 75.23,168.814 83.82,181.584 3.71,5.52 9.93,8.83 16.59,8.83 l 789.18,0 c 6.71,0 12.98,-3.36 16.69,-8.97 8.56,-12.97 83.72,-128.21 83.72,-181.444" />
            <path
               id="path44"
               style="fill:#2e3535;fill-opacity:1;fill-rule:nonzero;stroke:none"
               d="m 1950.66,461.785 c 5.12,0 10.24,1.953 14.14,5.86 l 90.2,90.214 c 7.81,7.817 7.81,20.481 0,28.293 -7.81,7.793 -20.47,7.801 -28.28,-0.007 l -90.2,-90.215 c -7.81,-7.817 -7.81,-20.481 0,-28.293 3.91,-3.899 9.03,-5.852 14.14,-5.852" />
            <path
               id="path46"
               style="fill:#2e3535;fill-opacity:1;fill-rule:nonzero;stroke:none"
               d="m 1950.66,287.98 c 5.12,0 10.24,1.954 14.14,5.86 l 263.99,264.019 c 7.81,7.817 7.81,20.481 0,28.293 -7.81,7.793 -20.47,7.801 -28.28,-0.007 L 1936.52,322.117 c -7.81,-7.808 -7.81,-20.476 0,-28.289 3.91,-3.894 9.03,-5.848 14.14,-5.848" />
            <path
               id="path48"
               style="fill:#2e3535;fill-opacity:1;fill-rule:nonzero;stroke:none"
               d="m 2200.51,412.336 -90.2,-90.195 c -7.81,-7.805 -7.81,-20.481 0,-28.286 3.91,-3.906 9.03,-5.859 14.14,-5.859 5.12,0 10.24,1.953 14.14,5.859 l 90.2,90.2 c 7.81,7.8 7.81,20.476 0,28.281 -7.81,7.809 -20.47,7.809 -28.28,0" />
            <path
               id="path50"
               style="fill:#2e3535;fill-opacity:1;fill-rule:nonzero;stroke:none"
               d="m 1696.86,343.992 c 15.6,0 28.26,12.656 28.26,28.266 0,15.601 -12.66,28.262 -28.26,28.262 -15.61,0 -28.27,-12.661 -28.27,-28.262 0,-15.61 12.66,-28.266 28.27,-28.266" />
            <path
               id="path52"
               style="fill:#2e3535;fill-opacity:1;fill-rule:nonzero;stroke:none"
               d="m 6813.2,4658.37 117.17,-77.03 0,194.2 -117.17,-117.17 z m 157.17,157.16 0,-260.48 83.97,-55.21 0.02,399.68 -83.99,-83.99 z m 123.99,121.45 0,-463.43 83.96,-55.21 0.02,605.16 -84.22,-84.21 c 0.08,-0.77 0.24,-1.52 0.24,-2.31 z m 123.96,126.52 0,-612.84 84.2,84.2 c -0.08,0.67 -0.2,1.31 -0.22,2 l 0.02,610.63 -84,-83.99 z m 124,121.98 -0.02,-610.83 84.28,84.29 c -0.13,0.95 -0.29,1.91 -0.29,2.91 l 0,609.61 -84.16,-84.16 c 0.06,-0.61 0.19,-1.2 0.19,-1.82 z m 123.97,74.21 0,-561.05 83.96,83.97 0,346.29 c 0,0.54 0.12,1.06 0.16,1.58 l -84.12,129.21 z m 123.96,-190.38 0,-246.7 97.29,97.28 -97.29,149.42 z m -811.19,-388.5 655.98,655.96 c 4.26,4.26 10.21,6.37 16.21,5.75 6,-0.63 11.39,-3.93 14.69,-8.98 l 263.98,-405.41 c 5.16,-7.92 4.06,-18.36 -2.62,-25.05 L 7199.73,4375.5 c -6.72,-6.71 -17.21,-7.79 -25.14,-2.57 l -111.39,73.21 c -0.02,0.02 -0.04,0.04 -0.07,0.05 l -290,190.66 c -1.74,0.8 -3.4,1.87 -4.89,3.2 l -185.14,121.72 -82.91,-82.91 c -7.82,-7.81 -20.47,-7.81 -28.29,0 -7.81,7.81 -7.81,20.48 0,28.29 l 94.42,94.42 c 6.7,6.71 17.21,7.79 25.14,2.58 l 187.6,-123.34" />
            <path
               id="path54"
               style="fill:#2e3535;fill-opacity:1;fill-rule:nonzero;stroke:none"
               d="m 7319.02,4391.41 c -12.22,-12.23 -12.22,-32.13 0,-44.36 12.23,-12.23 32.13,-12.23 44.36,0 12.23,12.23 12.23,32.13 0,44.36 -12.23,12.22 -32.13,12.22 -44.36,0 z m -28.28,28.28 c 27.81,27.83 73.09,27.83 100.92,0 27.83,-27.82 27.83,-73.1 0,-100.92 -27.83,-27.83 -73.11,-27.83 -100.92,0 -27.83,27.82 -27.83,73.1 0,100.92" />
            <path
               id="path56"
               style="fill:#2e3535;fill-opacity:1;fill-rule:nonzero;stroke:none"
               d="m 6403.45,4243.4 -802.9,0 0,-80 802.9,0 0,80 z m 0,-178.33 -802.9,0 0,-347.08 802.9,0 0,347.08 z m 40,198.33 0,-565.41 c 0,-11.06 -8.95,-20 -20,-20 l -842.9,0 c -11.05,0 -20,8.94 -20,20 l 0,565.41 c 0,11.04 8.95,20 20,20 l 842.9,0 c 11.05,0 20,-8.96 20,-20" />
            <path
               id="path58"
               style="fill:#2e3535;fill-opacity:1;fill-rule:nonzero;stroke:none"
               d="m 6523.66,4383.6 -719.89,0 c -11.05,0 -20,-8.95 -20,-20 0,-11.04 8.95,-20 20,-20 l 699.89,0 0,-545.42 c 0,-11.03 8.97,-20 20,-20 11.06,0 20,8.97 20,20 l 0,565.42 c 0,11.05 -8.94,20 -20,20" />
            <path
               id="path60"
               style="fill:#2e3535;fill-opacity:1;fill-rule:nonzero;stroke:none"
               d="m 5652.11,3950.07 281.65,0 c 11.05,0 20,8.95 20,20 0,11.04 -8.95,20 -20,20 l -281.65,0 c -11.05,0 -20,-8.96 -20,-20 0,-11.05 8.95,-20 20,-20" />
            <path
               id="path62"
               style="fill:#2e3535;fill-opacity:1;fill-rule:nonzero;stroke:none"
               d="m 5652.11,3859.65 151.66,0 c 11.04,0 20,8.94 20,20 0,11.03 -8.96,20 -20,20 l -151.66,0 c -11.05,0 -20,-8.97 -20,-20 0,-11.06 8.95,-20 20,-20" />
            <path
               id="path64-3"
               style="fill:#2e3535;fill-opacity:1;fill-rule:nonzero;stroke:none"
               d="m 5652.11,3769.22 233.31,0 c 11.05,0 20,8.96 20,20 0,11.05 -8.95,20 -20,20 l -233.31,0 c -11.05,0 -20,-8.95 -20,-20 0,-11.04 8.95,-20 20,-20" />
            <path
               id="path66-6"
               style="fill:#2e3535;fill-opacity:1;fill-rule:nonzero;stroke:none"
               d="m 5923.76,3789.22 c 0,-11.04 8.96,-20 20,-20 l 217.09,0 c 11.05,0 20,8.96 20,20 0,11.05 -8.95,20 -20,20 l -217.09,0 c -11.04,0 -20,-8.95 -20,-20" />
            <path
               id="path68-7"
               style="fill:#2e3535;fill-opacity:1;fill-rule:nonzero;stroke:none"
               d="m 6225.24,3769.22 126.66,0 c 11.06,0 20,8.96 20,20 0,11.05 -8.94,20 -20,20 l -126.66,0 c -11.03,0 -20,-8.95 -20,-20 0,-11.04 8.97,-20 20,-20" />
            <path
               id="path70-5"
               style="fill:#2e3535;fill-opacity:1;fill-rule:nonzero;stroke:none"
               d="m 8030.63,3407.25 -605.38,605.37 -101.7,-101.7 605.38,-605.37 101.7,101.7 z m -192.58,-67.41 -225.96,225.96 -140.59,-140.59 223.15,-223.16 c 0.96,-0.96 1.8,-1.99 2.52,-3.09 l 140.88,140.88 z m -168.6,-168.59 c -1.09,0.72 -2.13,1.56 -3.08,2.52 l -223.17,223.16 -135.31,-135.33 225.98,-225.96 135.58,135.61 z m -85.64,422.83 -225.96,225.98 -140.88,-140.88 c 1.1,-0.74 2.13,-1.56 3.09,-2.54 l 223.14,-223.14 140.61,140.58 z m -168.89,-168.87 -223.14,223.15 c -0.96,0.96 -1.8,2.01 -2.52,3.1 l -135.61,-135.6 225.96,-225.96 135.31,135.31 z m 303.56,380.59 c 7.36,22.27 15.27,53.63 14.43,83.77 -0.51,18.09 -7.44,35.51 -18.53,46.6 -6.27,6.27 -12.99,9.53 -18.44,8.95 -7.01,-0.74 -17.52,-5.32 -24.03,-15.73 -6.99,-11.17 -7.42,-26.13 -1.23,-43.24 10.02,-27.73 31.47,-58.94 47.8,-80.35 z m 46.42,-46.17 c 32.4,-25.25 86.9,-64.71 124.96,-76.39 35.24,-10.8 66.14,-10.23 87.03,1.62 11.88,6.74 19.73,16.76 22.74,28.97 3.53,14.45 1.31,37.71 -16.64,55.66 -14.32,14.32 -36.06,21.88 -62.89,21.9 -51.51,-0.02 -116.66,-18.87 -155.2,-31.76 z m 308.15,-366.52 -129.98,-129.98 c -7.82,-7.82 -20.47,-7.82 -28.28,0 l -48.46,48.43 -318.32,-318.34 c -7.81,-7.81 -20.49,-7.81 -28.28,0 l -508.5,508.5 c -7.81,7.81 -7.81,20.47 0,28.28 l 318.32,318.34 -48.42,48.44 c -7.81,7.79 -7.81,20.47 0,28.28 l 129.98,129.98 c 7.82,7.81 20.47,7.81 28.28,0 l 201.96,-201.95 c -3.15,6.52 -5.98,13.04 -8.3,19.47 -10.35,28.67 -8.6,56.39 4.94,78.05 11.99,19.16 32.07,31.98 53.71,34.29 17.79,1.9 35.9,-5.37 50.96,-20.44 18.41,-18.41 29.43,-45.3 30.23,-73.76 0.92,-32.95 -6.56,-66.05 -14.32,-90.99 41.59,13.59 107.06,31.66 161.53,31.66 47.6,0 75.86,-18.26 91.17,-33.6 24.45,-24.43 35.12,-61.13 27.21,-93.45 -5.61,-22.86 -20.47,-42.11 -41.86,-54.24 -21.6,-12.27 -59.71,-23.11 -118.48,-5.08 -16.52,5.06 -35.11,14.18 -53.73,25.02 l 248.64,-248.63 c 7.81,-7.82 7.81,-20.47 0,-28.28" />
            <path
               id="path72-3"
               style="fill:#2e3535;fill-opacity:1;fill-rule:nonzero;stroke:none"
               d="m 7421.13,2438.39 c -1.6,2.33 -4.27,5.53 -8.55,9.38 l -388.65,351.83 c -9.48,8.57 -22.29,13.3 -36.08,13.3 -13.79,0 -26.6,-4.73 -36.09,-13.31 L 6563.1,2447.78 c -4.26,-3.86 -6.94,-7.06 -8.54,-9.39 1.93,-0.33 4.51,-0.59 7.83,-0.59 l 850.91,0 c 3.32,0 5.9,0.26 7.83,0.59 z m 39.85,-15.72 c -3.58,-9.29 -14.53,-24.87 -47.68,-24.87 l -850.91,0 c -33.16,0 -44.12,15.58 -47.69,24.87 -3.75,9.76 -5.96,29.87 21.56,54.77 l 388.66,351.81 c 12.01,10.87 26.82,18.17 42.91,21.52 l 0,36.56 c 0,11.05 8.97,20 20,20 41.86,0 75.9,34.05 75.9,75.88 0,41.84 -34.04,75.88 -75.9,75.88 -41.83,0 -75.88,-34.04 -75.88,-75.88 0,-11.04 -8.96,-20 -20,-20 -11.05,0 -20,8.96 -20,20 0,63.9 52,115.88 115.88,115.88 63.91,0 115.9,-51.98 115.9,-115.88 0,-57.08 -41.48,-104.65 -95.9,-114.15 l 0,-18.28 c 16.1,-3.35 30.92,-10.66 42.93,-21.52 l 388.65,-351.83 c 27.54,-24.89 25.34,-45 21.57,-54.76" />
            <path
               id="path74-5"
               style="fill:#2e3535;fill-opacity:1;fill-rule:nonzero;stroke:none"
               d="m 5019.94,2556.33 -146.37,676.81 -79.45,0 0,-40.28 c 11.33,-6.82 18.99,-19.12 18.99,-33.32 0,-21.54 -17.45,-38.99 -38.99,-38.99 -21.52,0 -39,17.45 -39,38.99 0,14.19 7.67,26.49 19,33.31 l 0,40.29 -260.55,0 0,-40.28 c 11.33,-6.82 19.01,-19.12 19.01,-33.32 0,-21.54 -17.46,-38.99 -39.01,-38.99 -21.52,0 -38.98,17.45 -38.98,38.99 0,14.19 7.66,26.49 18.98,33.31 l 0,40.29 -79.43,0 -146.39,-676.81 792.19,0 z m -526.25,716.81 260.31,0 c -0.58,33.93 -13.98,65.74 -38.02,89.79 -24.61,24.61 -57.33,38.16 -92.13,38.16 -71.06,0 -128.91,-57.19 -130.16,-127.95 z m 551.04,-756.81 -841.76,0 c -6.06,0 -11.78,2.73 -15.57,7.44 -3.81,4.71 -5.27,10.88 -3.98,16.79 l 155.04,716.81 c 1.99,9.21 10.13,15.77 19.55,15.77 l 95.68,0 c 1.27,92.81 77.05,167.95 170.16,167.95 45.49,0 88.26,-17.71 120.41,-49.87 31.62,-31.62 49.16,-73.47 49.74,-118.08 l 95.71,0 c 9.41,0 17.56,-6.56 19.55,-15.77 l 155.02,-716.81 c 1.29,-5.92 -0.18,-12.08 -3.99,-16.79 -3.79,-4.71 -9.51,-7.44 -15.56,-7.44" />
            <path
               id="path76-6"
               style="fill:#2e3535;fill-opacity:1;fill-rule:nonzero;stroke:none"
               d="m 2842.62,3431.93 c 126.48,-17.09 255.11,-25.75 382.65,-25.75 127.54,0 256.18,8.66 382.66,25.75 l -92.4,649.29 c -24.53,-3.27 -49.12,-6.1 -73.77,-8.52 l 0,-42.7 c 13.28,-7.17 22.42,-21.04 22.42,-37.2 0,-23.43 -19,-42.42 -42.42,-42.42 -23.44,0 -42.44,18.99 -42.44,42.42 0,16.16 9.14,30.03 22.44,37.2 l 0,39.15 c -117.33,-9.39 -235.67,-9.39 -352.97,0 l 0,-39.15 c 13.28,-7.17 22.42,-21.04 22.42,-37.2 0,-23.43 -19,-42.42 -42.42,-42.42 -23.44,0 -42.42,18.99 -42.42,42.42 0,16.16 9.12,30.04 22.42,37.2 l 0,42.7 c -24.65,2.42 -49.26,5.25 -73.77,8.52 l -92.4,-649.29 z m 207.05,677.34 c 116.72,-9.47 234.53,-9.46 351.25,0 -3.93,40.59 -21.62,78.24 -50.84,107.45 -33.34,33.33 -77.66,51.69 -124.81,51.69 -91.46,0 -166.87,-69.94 -175.6,-159.14 z m -245.69,-706.4 c -3.18,4.24 -4.55,9.58 -3.8,14.83 l 98.04,688.86 c 0.74,5.26 3.56,9.99 7.8,13.18 4.23,3.18 9.53,4.57 14.82,3.8 29.55,-4.2 59.22,-7.71 88.98,-10.68 10.57,109.59 103.15,195.55 215.45,195.55 57.84,0 112.21,-22.52 153.09,-63.41 35.92,-35.9 57.62,-82.22 62.38,-132.13 29.75,2.96 59.42,6.47 88.95,10.67 5.31,0.75 10.58,-0.62 14.84,-3.8 4.24,-3.19 7.03,-7.92 7.79,-13.18 l 98.03,-688.86 c 1.56,-10.94 -6.05,-21.06 -16.97,-22.62 -134.73,-19.18 -272.03,-28.9 -408.11,-28.9 -136.07,0 -273.38,9.72 -408.1,28.9 -5.26,0.75 -10,3.55 -13.19,7.79" />
            <path
               id="path78"
               style="fill:#2e3535;fill-opacity:1;fill-rule:nonzero;stroke:none"
               d="m 3807.23,4676.97 117.24,0 143.3,-693.22 c 1.92,-9.29 10.1,-15.95 19.59,-15.95 l 746.12,0 c 9.45,0 17.61,6.62 19.57,15.87 l 100,473.34 c 1.23,5.9 -0.24,12.04 -4.05,16.73 -3.79,4.68 -9.51,7.4 -15.52,7.4 l -606.39,0 c -11.05,0 -20,-8.95 -20,-20 0,-11.04 8.95,-20 20,-20 l 581.72,0 -58.07,-274.8 -584.51,0 c -11.05,0 -20,-8.96 -20,-20 0,-11.05 8.95,-20 20,-20 l 576.06,0 -25.04,-118.54 -713.6,0 -56.89,275.2 577.22,0 c 11.06,0 20,8.96 20,20 0,11.05 -8.94,20 -20,20 l -585.48,0 -78.15,378.02 c -1.91,9.29 -10.1,15.95 -19.59,15.95 l -133.53,0 c -11.06,0 -20,-8.95 -20,-20 0,-11.04 8.94,-20 20,-20" />
            <path
               id="path80"
               style="fill:#2e3535;fill-opacity:1;fill-rule:nonzero;stroke:none"
               d="m 4730.21,3831.96 c 17.31,0 31.39,14.08 31.39,31.37 0,17.3 -14.08,31.37 -31.39,31.37 -17.28,0 -31.34,-14.07 -31.34,-31.37 0,-17.29 14.06,-31.37 31.34,-31.37 z m 0,-40 c -39.33,0 -71.34,32.02 -71.34,71.37 0,39.35 32.01,71.37 71.34,71.37 39.36,0 71.39,-32.02 71.39,-71.37 0,-39.35 -32.03,-71.37 -71.39,-71.37" />
            <path
               id="path82"
               style="fill:#2e3535;fill-opacity:1;fill-rule:nonzero;stroke:none"
               d="m 4182.97,3831.96 c 17.28,0 31.37,14.08 31.37,31.37 0,17.3 -14.09,31.37 -31.37,31.37 -17.31,0 -31.37,-14.07 -31.37,-31.37 0,-17.29 14.06,-31.37 31.37,-31.37 z m 0,-40 c -39.36,0 -71.37,32.02 -71.37,71.37 0,39.35 32.01,71.37 71.37,71.37 39.35,0 71.37,-32.02 71.37,-71.37 0,-39.35 -32.02,-71.37 -71.37,-71.37" />
            <path
               id="path84"
               style="fill:#2e3535;fill-opacity:1;fill-rule:nonzero;stroke:none"
               d="m 2905.7,2377.23 117.17,-77.03 0,194.19 -117.17,-117.16 z m 157.17,157.16 0,-260.48 83.97,-55.21 0.02,399.68 -83.99,-83.99 z m 123.99,121.44 0,-463.42 83.96,-55.21 0.02,605.16 -84.22,-84.22 c 0.08,-0.76 0.24,-1.51 0.24,-2.31 z m 123.96,126.52 0,-612.83 84.2,84.2 c -0.08,0.66 -0.2,1.31 -0.22,1.99 l 0.02,610.64 -84,-84 z m 124,121.99 -0.02,-610.83 84.28,84.28 c -0.13,0.96 -0.29,1.92 -0.29,2.91 l 0,609.62 -84.16,-84.16 c 0.06,-0.61 0.19,-1.2 0.19,-1.82 z m 123.97,74.21 0,-561.05 83.96,83.96 0,346.29 c 0,0.55 0.12,1.06 0.16,1.59 l -84.12,129.21 z m 123.96,-190.39 0,-246.7 97.29,97.29 -97.29,149.41 z m -811.19,-388.49 655.98,655.96 c 4.26,4.26 10.21,6.37 16.21,5.75 6,-0.63 11.39,-3.93 14.69,-8.98 l 263.98,-405.41 c 5.16,-7.92 4.06,-18.37 -2.62,-25.05 l -527.57,-527.58 c -6.72,-6.71 -17.21,-7.79 -25.14,-2.57 L 3155.7,2165 c -0.02,0.02 -0.04,0.04 -0.07,0.05 l -290,190.65 c -1.74,0.8 -3.4,1.88 -4.89,3.21 l -185.14,121.72 -82.91,-82.92 c -7.82,-7.8 -20.47,-7.8 -28.29,0 -7.81,7.82 -7.81,20.48 0,28.3 l 94.42,94.42 c 6.7,6.7 17.21,7.78 25.14,2.57 l 187.6,-123.33" />
            <path
               id="path86"
               style="fill:#2e3535;fill-opacity:1;fill-rule:nonzero;stroke:none"
               d="m 3842.85,2497.24 c -12.22,12.23 -32.13,12.22 -44.37,-0.01 -12.23,-12.23 -12.21,-32.11 0.02,-44.35 12.22,-12.23 32.13,-12.24 44.33,-0.01 12.25,12.23 12.25,32.14 0.02,44.37 z m 28.26,-72.65 c -27.81,-27.83 -73.08,-27.81 -100.9,0 -27.83,27.83 -27.85,73.1 -0.01,100.92 27.83,27.83 73.12,27.84 100.93,0.02 27.83,-27.83 27.83,-73.11 -0.02,-100.94" />
            <path
               id="path88"
               style="fill:#2e3535;fill-opacity:1;fill-rule:nonzero;stroke:none"
               d="m 3411.52,2110.26 c -12.22,-12.22 -12.22,-32.13 0,-44.35 12.23,-12.23 32.13,-12.23 44.36,0 12.23,12.22 12.23,32.13 0,44.35 -12.23,12.23 -32.13,12.23 -44.36,0 z m -28.28,28.28 c 27.81,27.84 73.09,27.84 100.92,0 27.83,-27.82 27.83,-73.09 0,-100.91 -27.83,-27.84 -73.11,-27.84 -100.92,0 -27.83,27.82 -27.83,73.09 0,100.91" />
            <path
               id="path90"
               style="fill:#2e3535;fill-opacity:1;fill-rule:nonzero;stroke:none"
               d="m 2495.95,1962.26 -802.9,0 0,-80 802.9,0 0,80 z m 0,-178.33 -802.9,0 0,-347.08 802.9,0 0,347.08 z m 40,198.33 0,-565.41 c 0,-11.06 -8.95,-20 -20,-20 l -842.9,0 c -11.05,0 -20,8.94 -20,20 l 0,565.41 c 0,11.04 8.95,20 20,20 l 842.9,0 c 11.05,0 20,-8.96 20,-20" />
            <path
               id="path92"
               style="fill:#2e3535;fill-opacity:1;fill-rule:nonzero;stroke:none"
               d="m 2616.16,2102.46 -719.89,0 c -11.05,0 -20,-8.95 -20,-20 0,-11.04 8.95,-20 20,-20 l 699.89,0 0,-545.42 c 0,-11.03 8.97,-20 20,-20 11.06,0 20,8.97 20,20 l 0,565.42 c 0,11.05 -8.94,20 -20,20" />
            <path
               id="path94"
               style="fill:#2e3535;fill-opacity:1;fill-rule:nonzero;stroke:none"
               d="m 1744.61,1668.93 281.65,0 c 11.05,0 20,8.95 20,20 0,11.04 -8.95,20 -20,20 l -281.65,0 c -11.05,0 -20,-8.96 -20,-20 0,-11.05 8.95,-20 20,-20" />
            <path
               id="path96"
               style="fill:#2e3535;fill-opacity:1;fill-rule:nonzero;stroke:none"
               d="m 1744.61,1578.51 151.66,0 c 11.04,0 20,8.94 20,20 0,11.03 -8.96,20 -20,20 l -151.66,0 c -11.05,0 -20,-8.97 -20,-20 0,-11.06 8.95,-20 20,-20" />
            <path
               id="path98"
               style="fill:#2e3535;fill-opacity:1;fill-rule:nonzero;stroke:none"
               d="m 1744.61,1488.08 233.31,0 c 11.05,0 20,8.96 20,20 0,11.05 -8.95,20 -20,20 l -233.31,0 c -11.05,0 -20,-8.95 -20,-20 0,-11.04 8.95,-20 20,-20" />
            <path
               id="path100"
               style="fill:#2e3535;fill-opacity:1;fill-rule:nonzero;stroke:none"
               d="m 2016.26,1508.08 c 0,-11.04 8.96,-20 20,-20 l 217.09,0 c 11.05,0 20,8.96 20,20 0,11.05 -8.95,20 -20,20 l -217.09,0 c -11.04,0 -20,-8.95 -20,-20" />
            <path
               id="path102"
               style="fill:#2e3535;fill-opacity:1;fill-rule:nonzero;stroke:none"
               d="m 2317.74,1488.08 126.66,0 c 11.06,0 20,8.96 20,20 0,11.05 -8.94,20 -20,20 l -126.66,0 c -11.03,0 -20,-8.95 -20,-20 0,-11.04 8.97,-20 20,-20" />
            <path
               id="path104"
               style="fill:#2e3535;fill-opacity:1;fill-rule:nonzero;stroke:none"
               d="m 2280.11,2841.98 c -0.96,1.22 -1.82,2.5 -2.95,3.62 -1.13,1.13 -2.4,2 -3.63,2.96 -12.06,9.52 -28.23,11.13 -41.68,4.78 -4.07,-1.91 -7.91,-4.39 -11.27,-7.74 -15.59,-15.6 -15.59,-40.97 0,-56.57 15.6,-15.6 40.97,-15.6 56.56,0 3.36,3.35 5.84,7.2 7.75,11.26 6.35,13.47 4.73,29.62 -4.78,41.69 z m -482.13,-246.11 229.43,-229.44 353.09,353.09 35.33,177.71 0.39,1.98 -27.48,27.49 -30.49,30.49 c -27.63,-28.41 -48.44,-53.79 -63.28,-74.59 3.65,-2.59 7.19,-5.44 10.47,-8.71 3.26,-3.27 6.11,-6.81 8.71,-10.47 8.34,-11.8 13.14,-25.34 14.34,-39.17 1.97,-22.73 -5.71,-46.14 -23.05,-63.5 -31.19,-31.19 -81.95,-31.19 -113.15,0 -31.19,31.19 -31.19,81.95 0,113.14 17.37,17.36 40.77,25.02 63.52,23.06 22.72,33.55 53.26,66.99 72.97,87.33 l -177.72,-35.32 -353.08,-353.09 z m 588.81,389.34 29.98,-29.97 c 47.42,50.7 72.3,90.56 79.47,109.46 -18.91,-7.17 -58.75,-32.05 -109.45,-79.49 z m -631.23,-403.48 c -7.82,7.81 -7.82,20.47 0,28.28 l 371.52,371.52 c 2.91,2.91 6.48,4.73 10.23,5.47 l 0,0.01 196.14,38.99 c 6.54,1.29 13.32,-0.76 18.02,-5.48 l 7.02,-7 c 46.99,44.15 136.34,118.79 170.88,84.28 34.49,-34.51 -40.14,-123.87 -84.3,-170.86 l 6.99,-7 c 4.73,-4.72 6.78,-11.49 5.47,-18.04 l -38.99,-196.13 0,0 c -0.74,-3.75 -2.55,-7.33 -5.46,-10.24 L 2041.57,2324 c -3.77,-3.76 -8.85,-5.86 -14.16,-5.86 -5.29,0 -10.39,2.11 -14.14,5.86 l -257.71,257.73" />
            <path
               id="path106-2"
               style="fill:#2e3535;fill-opacity:1;fill-rule:nonzero;stroke:none"
               d="m 4754.43,2155.19 c -7.81,7.81 -20.48,7.81 -28.28,0 -7.81,-7.82 -7.81,-20.47 0,-28.29 26.98,-26.97 41.82,-62.91 41.82,-101.17 0,-38.26 -14.84,-74.2 -41.82,-101.17 -7.81,-7.81 -7.81,-20.49 0,-28.28 3.89,-3.91 9.03,-5.86 14.14,-5.86 5.12,0 10.24,1.95 14.14,5.86 34.53,34.53 53.54,80.51 53.54,129.45 0.02,48.95 -19.01,94.92 -53.54,129.46" />
            <path
               id="path108-9"
               style="fill:#2e3535;fill-opacity:1;fill-rule:nonzero;stroke:none"
               d="m 5162.5,1576.22 -286.78,198.75 198.75,-286.76 c 11.62,-11.01 26.76,-17.07 42.83,-17.07 16.63,0 32.27,6.49 44.03,18.24 23.87,23.87 24.26,62.49 1.17,86.84 z m -315.04,449.51 c 0,59.44 -23.12,115.3 -65.16,157.33 -42.03,42.01 -97.89,65.15 -157.32,65.15 -59.43,0 -115.29,-23.14 -157.32,-65.15 -42.03,-42.03 -65.18,-97.91 -65.18,-157.35 0,-59.41 23.15,-115.29 65.16,-157.32 42.03,-42.01 97.89,-65.16 157.32,-65.16 59.43,0 115.29,23.15 157.33,65.18 42.03,42.03 65.17,97.89 65.17,157.32 z m 342.15,-420.04 c 39.86,-39.86 39.86,-104.72 0,-144.59 -19.32,-19.31 -45,-29.96 -72.31,-29.96 -27.3,0 -52.98,10.65 -72.3,29.96 -0.86,0.84 -1.62,1.76 -2.3,2.74 l -249.69,360.27 c -47.11,-39.39 -105.92,-60.88 -168.05,-60.88 l 0,0 c -70.12,0 -136.03,27.31 -185.6,76.88 -49.57,49.59 -76.88,115.51 -76.88,185.62 0,70.1 27.31,136.02 76.9,185.61 49.57,49.57 115.48,76.87 185.6,76.87 70.12,0 136.04,-27.3 185.61,-76.87 49.59,-49.57 76.89,-115.49 76.87,-185.61 0,-62.13 -21.48,-120.94 -60.88,-168.04 L 5186.86,1608 c 0.99,-0.69 1.91,-1.45 2.75,-2.31" />
            <path
               id="path110-1"
               style="fill:#2e3535;fill-opacity:1;fill-rule:nonzero;stroke:none"
               d="m 6324.77,3179.64 c 0,29.14 -41.51,103.98 -71.25,150.41 l -767.58,0 c -29.73,-45.68 -71.17,-119.92 -71.17,-150.41 0,-40.65 34.35,-74.99 75,-74.99 41.36,0 75,33.64 75,74.99 0,11.05 8.96,20 20,20 11.05,0 20,-8.95 20,-20 0,-41.35 33.65,-74.99 75,-74.99 41.36,0 75,33.64 75,74.99 0,11.05 8.96,20 20,20 11.05,0 20,-8.95 20,-20 0,-41.35 33.65,-74.99 75,-74.99 41.36,0 75,33.64 75,74.99 0,11.05 8.96,20 20,20 11.05,0 20,-8.95 20,-20 0,-41.35 33.65,-74.99 75,-74.99 41.36,0 75,33.64 75,74.99 0,11.05 8.96,20 20,20 11.05,0 20,-8.95 20,-20 0,-41.35 33.65,-74.99 75,-74.99 39.25,0 75,35.75 75,74.99 z m -87.91,-114.22 c -34.05,3.83 -63.66,22.55 -82.09,49.53 -20.73,-30.34 -55.57,-50.3 -95,-50.3 -39.44,0 -74.28,19.96 -95,50.3 -20.73,-30.34 -55.57,-50.3 -95,-50.3 -39.44,0 -74.28,19.96 -95,50.3 -20.73,-30.34 -55.57,-50.3 -95,-50.3 -39.44,0 -74.28,19.96 -95,50.3 -16.76,-24.52 -42.74,-42.23 -72.91,-48.12 l 0,-217.18 185,0 0,125 c 0,11.04 8.96,20 20,20 l 520,0 0,70.77 z m 0,-110.77 -500,0 0,-457.5 500,0 0,457.5 z m -540,-145 -185,0 0,-312.5 185,0 0,312.5 z m 667.91,369.99 c 0,-51.99 -38.75,-98.42 -87.91,-111.33 l 0,-591.16 c 0,-11.05 -8.95,-20 -20,-20 l -765,0 c -11.04,0 -20,8.95 -20,20 l 0,589.1 c -54.16,8.92 -97.09,57.15 -97.09,113.39 0,55.34 75.23,168.82 83.82,181.58 3.71,5.52 9.93,8.83 16.59,8.83 l 789.18,0 c 6.71,0 12.98,-3.37 16.69,-8.97 8.56,-12.96 83.72,-128.21 83.72,-181.44" />
            <path
               id="path112-2"
               style="fill:#2e3535;fill-opacity:1;fill-rule:nonzero;stroke:none"
               d="m 5858.16,2742.93 c 5.12,0 10.24,1.95 14.14,5.86 l 90.2,90.21 c 7.81,7.82 7.81,20.48 0,28.29 -7.81,7.8 -20.47,7.81 -28.28,0 l -90.2,-90.22 c -7.81,-7.81 -7.81,-20.47 0,-28.29 3.91,-3.9 9.03,-5.85 14.14,-5.85" />
            <path
               id="path114-7"
               style="fill:#2e3535;fill-opacity:1;fill-rule:nonzero;stroke:none"
               d="m 5858.16,2569.12 c 5.12,0 10.24,1.95 14.14,5.86 L 6136.29,2839 c 7.81,7.82 7.81,20.48 0,28.29 -7.81,7.8 -20.47,7.81 -28.28,0 l -263.99,-264.03 c -7.81,-7.81 -7.81,-20.47 0,-28.28 3.91,-3.91 9.03,-5.86 14.14,-5.86" />
            <path
               id="path116-0"
               style="fill:#2e3535;fill-opacity:1;fill-rule:nonzero;stroke:none"
               d="m 6108.01,2693.48 -90.2,-90.2 c -7.81,-7.81 -7.81,-20.47 0,-28.28 3.91,-3.91 9.03,-5.86 14.14,-5.86 5.12,0 10.24,1.95 14.14,5.86 l 90.2,90.2 c 7.81,7.8 7.81,20.47 0,28.28 -7.81,7.81 -20.47,7.81 -28.28,0" />
            <path
               id="path118-9"
               style="fill:#2e3535;fill-opacity:1;fill-rule:nonzero;stroke:none"
               d="m 5604.36,2625.14 c 15.6,0 28.26,12.65 28.26,28.26 0,15.6 -12.66,28.26 -28.26,28.26 -15.61,0 -28.27,-12.66 -28.27,-28.26 0,-15.61 12.66,-28.26 28.27,-28.26" />
            <path
               id="path120-3"
               style="fill:#2e3535;fill-opacity:1;fill-rule:nonzero;stroke:none"
               d="m 4123.13,1126.1 -605.38,605.37 -101.7,-101.69 605.38,-605.38 101.7,101.7 z M 3930.55,1058.7 3704.59,1284.66 3564,1144.07 3787.15,920.906 c 0.96,-0.957 1.8,-1.988 2.52,-3.086 l 140.88,140.88 z m -168.6,-168.595 c -1.09,0.723 -2.13,1.567 -3.08,2.524 L 3535.7,1115.79 3400.39,980.461 3626.37,754.504 3761.95,890.105 Z m -85.64,422.835 -225.96,225.98 -140.88,-140.88 c 1.1,-0.75 2.13,-1.57 3.09,-2.54 l 223.14,-223.15 140.61,140.59 z m -168.89,-168.87 -223.14,223.15 c -0.96,0.95 -1.8,2.01 -2.52,3.1 l -135.61,-135.6 225.96,-225.96 135.31,135.31 z m 303.56,380.59 c 7.36,22.26 15.27,53.63 14.43,83.77 -0.51,18.08 -7.44,35.51 -18.53,46.6 -6.27,6.27 -12.99,9.53 -18.44,8.94 -7.01,-0.74 -17.52,-5.31 -24.03,-15.72 -6.99,-11.17 -7.42,-26.13 -1.23,-43.24 10.02,-27.73 31.47,-58.95 47.8,-80.35 z m 46.42,-46.17 c 32.4,-25.26 86.9,-64.71 124.96,-76.39 35.24,-10.8 66.14,-10.23 87.03,1.62 11.88,6.74 19.73,16.76 22.74,28.97 3.53,14.45 1.31,37.71 -16.64,55.66 -14.32,14.32 -36.06,21.87 -62.89,21.89 -51.51,-0.02 -116.66,-18.86 -155.2,-31.75 z m 308.15,-366.53 -129.98,-129.98 c -7.82,-7.808 -20.47,-7.808 -28.28,0 l -48.46,48.44 -318.32,-318.342 c -7.81,-7.808 -20.49,-7.808 -28.28,0 l -508.5,508.502 c -7.81,7.81 -7.81,20.46 0,28.28 l 318.32,318.34 -48.42,48.43 c -7.81,7.8 -7.81,20.47 0,28.29 l 129.98,129.98 c 7.82,7.81 20.47,7.81 28.28,0 l 201.96,-201.96 c -3.15,6.53 -5.98,13.05 -8.3,19.48 -10.35,28.67 -8.6,56.38 4.94,78.04 11.99,19.16 32.07,31.99 53.71,34.3 17.79,1.89 35.9,-5.37 50.96,-20.44 18.41,-18.41 29.43,-45.3 30.23,-73.76 0.92,-32.95 -6.56,-66.05 -14.32,-91 41.59,13.6 107.06,31.66 161.53,31.66 47.6,0 75.86,-18.26 91.17,-33.59 24.45,-24.43 35.12,-61.13 27.21,-93.46 -5.61,-22.85 -20.47,-42.11 -41.86,-54.23 -21.6,-12.27 -59.71,-23.11 -118.48,-5.08 -16.52,5.06 -35.11,14.18 -53.73,25.02 l 248.64,-248.64 c 7.81,-7.81 7.81,-20.46 0,-28.28" />
            <path
               id="path122"
               style="fill:#2e3535;fill-opacity:1;fill-rule:nonzero;stroke:none"
               d="m 5896.89,1782.2 c 0,-16.16 13.15,-29.3 29.3,-29.3 16.15,0 29.32,13.14 29.32,29.32 0,16.13 -13.17,29.27 -29.32,29.27 -16.15,0 -29.3,-13.14 -29.3,-29.29 z m -50,0 c 0,43.73 35.59,79.29 79.3,79.29 43.71,0 79.3,-35.56 79.32,-79.27 -0.02,-43.75 -35.61,-79.32 -79.32,-79.32 -43.71,0 -79.3,35.57 -79.3,79.3" />
            <path
               id="path124"
               style="fill:#2e3535;fill-opacity:1;fill-rule:nonzero;stroke:none"
               d="m 6050.04,1454.81 c 0,16.18 -13.15,29.32 -29.3,29.32 -16.13,-0.02 -29.29,-13.16 -29.29,-29.3 0,-16.17 13.14,-29.31 29.29,-29.31 16.15,0.02 29.3,13.14 29.3,29.29 z m 50,0 c 0,-43.69 -35.57,-79.27 -79.28,-79.29 0,0 0,0 -0.02,0 -43.71,0 -79.29,35.58 -79.29,79.31 0,43.7 35.56,79.26 79.27,79.3 43.75,0 79.32,-35.59 79.32,-79.32" />
            <path
               id="path126"
               style="fill:#2e3535;fill-opacity:1;fill-rule:nonzero;stroke:none"
               d="m 6167.71,1848.12 -423.84,-423.85 c -9.77,-9.77 -9.77,-25.59 0,-35.35 4.88,-4.89 11.29,-7.33 17.67,-7.33 6.41,0 12.8,2.44 17.68,7.33 l 423.85,423.84 c 9.76,9.77 9.76,25.59 0,35.36 -9.77,9.76 -25.59,9.76 -35.36,0" />
            <path
               id="path128"
               style="fill:#2e3535;fill-opacity:1;fill-rule:nonzero;stroke:none"
               d="m 6342.15,1618.51 c 0,206.62 -168.09,374.7 -374.71,374.7 -206.6,0 -374.71,-168.08 -374.71,-374.7 0,-206.63 168.11,-374.71 374.71,-374.71 206.62,0 374.71,168.08 374.71,374.71 z m 40,0 c 0,-228.68 -186.04,-414.71 -414.71,-414.71 -228.67,0 -414.71,186.03 -414.71,414.71 0,228.67 186.04,414.7 414.71,414.7 228.67,0 414.71,-186.03 414.71,-414.7" />
            <path
               id="path130"
               style="fill:#2e3535;fill-opacity:1;fill-rule:nonzero;stroke:none"
               d="m 4902.42,1246.82 -555.82,-555.843 332.76,-228.75 451.83,451.828 -228.77,332.765 z m 248.5,-369.601 -440.9,-440.903 217.89,-217.878 440.88,440.898 -217.87,217.883 z m -243.81,420.661 c 5.92,-0.55 11.31,-3.7 14.67,-8.59 l 251.79,-366.294 c 3.11,-4.519 4.05,-9.898 3.11,-14.988 l 234.55,-234.531 c 7.79,-7.801 7.79,-20.481 0,-28.289 L 4942.05,176.016 c -7.81,-7.813 -20.49,-7.801 -28.28,0 l -244.86,244.851 -364.79,250.766 c -4.9,3.355 -8.05,8.738 -8.59,14.656 -0.53,5.906 1.58,11.777 5.78,15.977 l 589.84,589.834 c 4.2,4.2 10.06,6.31 15.96,5.78" />
            <path
               id="path132"
               style="fill:#2e3535;fill-opacity:1;fill-rule:nonzero;stroke:none"
               d="m 4803.63,445.547 -29.86,-29.863 24.43,-24.434 29.87,29.863 -24.44,24.434" />
            <path
               id="path134"
               style="fill:#2e3535;fill-opacity:1;fill-rule:nonzero;stroke:none"
               d="m 4856.58,498.496 -29.88,-29.875 24.43,-24.422 29.89,29.864 -24.44,24.433" />
            <path
               id="path136"
               style="fill:#2e3535;fill-opacity:1;fill-rule:nonzero;stroke:none"
               d="m 4909.53,551.445 -29.88,-29.875 24.43,-24.422 29.88,29.872 -24.43,24.425" />
            <path
               id="path138"
               style="fill:#2e3535;fill-opacity:1;fill-rule:nonzero;stroke:none"
               d="m 4962.48,604.395 -29.88,-29.864 24.43,-24.433 29.86,29.863 -24.41,24.434" />
            <path
               id="path140"
               style="fill:#2e3535;fill-opacity:1;fill-rule:nonzero;stroke:none"
               d="m 5015.41,657.336 -29.84,-29.856 24.41,-24.433 29.86,29.851 -24.43,24.438" />
            <path
               id="path142"
               style="fill:#2e3535;fill-opacity:1;fill-rule:nonzero;stroke:none"
               d="m 5068.36,710.281 -29.86,-29.871 24.43,-24.433 29.86,29.882 -24.43,24.422" />
            <path
               id="path144"
               style="fill:#2e3535;fill-opacity:1;fill-rule:nonzero;stroke:none"
               d="m 5121.31,763.23 -29.86,-29.871 24.43,-24.421 29.86,29.871 -24.43,24.421" />
            <path
               id="path146"
               style="fill:#2e3535;fill-opacity:1;fill-rule:nonzero;stroke:none"
               d="m 5174.26,816.172 -29.87,-29.863 24.44,-24.422 29.86,29.851 -24.43,24.434" />
            <path
               id="path148"
               style="fill:#2e3535;fill-opacity:1;fill-rule:nonzero;stroke:none"
               d="m 4844.36,404.813 -29.87,-29.864 24.44,-24.429 29.86,29.863 -24.43,24.43" />
            <path
               id="path150"
               style="fill:#2e3535;fill-opacity:1;fill-rule:nonzero;stroke:none"
               d="m 4897.3,457.766 -29.86,-29.875 24.44,-24.434 29.86,29.871 -24.44,24.438" />
            <path
               id="path152"
               style="fill:#2e3535;fill-opacity:1;fill-rule:nonzero;stroke:none"
               d="m 4950.25,510.715 -29.86,-29.875 24.43,-24.434 29.87,29.871 -24.44,24.438" />
            <path
               id="path154"
               style="fill:#2e3535;fill-opacity:1;fill-rule:nonzero;stroke:none"
               d="m 5003.2,563.652 -29.86,-29.863 24.43,-24.426 29.87,29.867 -24.44,24.422" />
            <path
               id="path156"
               style="fill:#2e3535;fill-opacity:1;fill-rule:nonzero;stroke:none"
               d="m 5056.15,616.602 -29.86,-29.864 24.43,-24.425 29.87,29.855 -24.44,24.434" />
            <path
               id="path158"
               style="fill:#2e3535;fill-opacity:1;fill-rule:nonzero;stroke:none"
               d="m 5109.1,669.551 -29.88,-29.871 24.43,-24.438 29.89,29.875 -24.44,24.434" />
            <path
               id="path160"
               style="fill:#2e3535;fill-opacity:1;fill-rule:nonzero;stroke:none"
               d="m 5162.05,722.5 -29.86,-29.871 24.41,-24.438 29.88,29.875 -24.43,24.434" />
            <path
               id="path162"
               style="fill:#2e3535;fill-opacity:1;fill-rule:nonzero;stroke:none"
               d="m 4885.1,364.082 -29.87,-29.863 24.42,-24.434 29.88,29.871 -24.43,24.426" />
            <path
               id="path164"
               style="fill:#2e3535;fill-opacity:1;fill-rule:nonzero;stroke:none"
               d="m 4938.05,417.031 -29.89,-29.863 24.44,-24.434 29.88,29.871 -24.43,24.426" />
            <path
               id="path166"
               style="fill:#2e3535;fill-opacity:1;fill-rule:nonzero;stroke:none"
               d="m 4991,469.988 -29.89,-29.871 24.44,-24.433 29.88,29.875 -24.43,24.429" />
            <path
               id="path168"
               style="fill:#2e3535;fill-opacity:1;fill-rule:nonzero;stroke:none"
               d="m 5043.93,522.93 -29.87,-29.864 24.44,-24.433 29.86,29.863 -24.43,24.434" />
            <path
               id="path170"
               style="fill:#2e3535;fill-opacity:1;fill-rule:nonzero;stroke:none"
               d="m 5096.88,575.867 -29.87,-29.851 24.44,-24.434 29.86,29.863 -24.43,24.422" />
            <path
               id="path172"
               style="fill:#2e3535;fill-opacity:1;fill-rule:nonzero;stroke:none"
               d="m 5149.82,628.828 -29.86,-29.875 24.43,-24.433 29.87,29.875 -24.44,24.433" />
            <path
               id="path174"
               style="fill:#2e3535;fill-opacity:1;fill-rule:nonzero;stroke:none"
               d="m 5214.98,775.438 -29.84,-29.864 40.72,-40.719 -52.95,-52.953 24.43,-24.429 82.8,82.8 -65.16,65.165" />
            <path
               id="path176"
               style="fill:#2e3535;fill-opacity:1;fill-rule:nonzero;stroke:none"
               d="m 4925.82,323.359 -29.86,-29.863 24.43,-24.433 29.86,29.863 -24.43,24.433" />
            <path
               id="path178"
               style="fill:#2e3535;fill-opacity:1;fill-rule:nonzero;stroke:none"
               d="m 5137.6,535.145 -188.71,-188.707 24.43,-24.434 188.71,188.711 -24.43,24.43" />
            <path
               id="path180"
               style="fill:#2e3535;fill-opacity:1;fill-rule:nonzero;stroke:none"
               d="m 5190.55,588.098 -29.87,-29.875 24.44,-24.434 29.86,29.871 -24.43,24.438" />
            <path
               id="path182"
               style="fill:#2e3535;fill-opacity:1;fill-rule:nonzero;stroke:none"
               d="m 5243.5,641.047 -29.87,-29.875 24.44,-24.434 29.86,29.871 -24.43,24.438" />
            <path
               id="path184"
               style="fill:#2e3535;fill-opacity:1;fill-rule:nonzero;stroke:none"
               d="m 5291.02,639.688 29.86,29.863 -24.43,24.433 -29.87,-29.863 24.44,-24.433" />
            <path
               id="path186"
               style="fill:#2e3535;fill-opacity:1;fill-rule:nonzero;stroke:none"
               d="m 4621.66,679.258 c 2.72,2.715 4.39,6.465 4.39,10.605 l 0,163.157 c 0,8.289 -6.71,15 -15,15 -8.28,0 -15,-6.711 -15,-15 l 0,-163.157 c 0,-8.281 6.72,-15 15,-15 4.15,0 7.9,1.68 10.61,4.395" />
            <path
               id="path188"
               style="fill:#2e3535;fill-opacity:1;fill-rule:nonzero;stroke:none"
               d="m 4917.42,757.578 c 4.14,0 7.89,1.668 10.61,4.387 2.71,2.715 4.39,6.465 4.39,10.601 l 0,163.137 c 0,8.289 -6.72,15 -15,15 -8.3,0 -15,-6.711 -15,-15 l 0,-163.137 c 0,-8.281 6.7,-14.988 15,-14.988" />
            <path
               id="path190"
               style="fill:#2e3535;fill-opacity:1;fill-rule:nonzero;stroke:none"
               d="m 4764.22,635.098 c 4.16,0 7.91,1.679 10.6,4.394 2.72,2.715 4.4,6.465 4.4,10.606 l 0.02,361.692 c 0,8.28 -6.72,15 -15,15 -8.28,0 -15,-6.72 -15,-15 l -0.02,-361.692 c 0,-8.282 6.72,-15 15,-15" />
            <path
               id="path192"
               style="fill:#2e3535;fill-opacity:1;fill-rule:nonzero;stroke:none"
               d="m 3513.63,157.246 c -1.6,2.332 -4.27,5.527 -8.55,9.387 l -388.65,351.824 c -9.48,8.574 -22.29,13.301 -36.08,13.301 -13.79,0 -26.6,-4.727 -36.09,-13.313 L 2655.6,166.641 c -4.26,-3.868 -6.94,-7.063 -8.54,-9.395 1.93,-0.332 4.51,-0.586 7.83,-0.586 l 850.91,0 c 3.32,0 5.9,0.254 7.83,0.586 z m 39.85,-15.723 c -3.58,-9.289 -14.53,-24.863 -47.68,-24.863 l -850.91,0 c -33.16,0 -44.12,15.574 -47.69,24.863 -3.75,9.766 -5.96,29.872 21.56,54.778 l 388.66,351.804 c 12.01,10.872 26.82,18.172 42.91,21.524 l 0,36.562 c 0,11.043 8.97,20 20,20 41.86,0 75.9,34.043 75.9,75.879 0,41.836 -34.04,75.879 -75.9,75.879 -41.83,0 -75.88,-34.043 -75.88,-75.879 0,-11.047 -8.96,-20 -20,-20 -11.05,0 -20,8.953 -20,20 0,63.899 52,115.879 115.88,115.879 63.91,0 115.9,-51.98 115.9,-115.879 0,-57.082 -41.48,-104.648 -95.9,-114.148 l 0,-18.281 c 16.1,-3.352 30.92,-10.664 42.93,-21.528 l 388.65,-351.824 c 27.54,-24.894 25.34,-45 21.57,-54.766" />
            <path
               id="path194"
               style="fill:#2e3535;fill-opacity:1;fill-rule:nonzero;stroke:none"
               d="m 846.934,4436.33 c -7.813,7.81 -20.489,7.81 -28.282,0 -7.812,-7.81 -7.812,-20.47 0,-28.28 26.973,-26.98 41.817,-62.91 41.817,-101.17 0,-38.27 -14.844,-74.2 -41.817,-101.18 -7.812,-7.81 -7.812,-20.49 0,-28.28 3.887,-3.9 9.024,-5.86 14.141,-5.86 5.117,0 10.234,1.96 14.141,5.86 34.531,34.53 53.535,80.51 53.535,129.46 0.019,48.94 -19.004,94.92 -53.535,129.45" />
            <path
               id="path196"
               style="fill:#2e3535;fill-opacity:1;fill-rule:nonzero;stroke:none"
               d="m 1255,3857.36 -286.777,198.75 198.747,-286.75 c 11.62,-11.02 26.76,-17.07 42.83,-17.07 16.63,0 32.27,6.48 44.03,18.24 23.87,23.86 24.26,62.48 1.17,86.83 z m -315.039,449.52 c 0,59.43 -23.125,115.29 -65.156,157.32 -42.032,42.01 -97.891,65.16 -157.325,65.16 -59.433,0 -115.292,-23.15 -157.324,-65.16 -42.031,-42.03 -65.176,-97.91 -65.176,-157.34 0,-59.42 23.145,-115.3 65.157,-157.33 42.031,-42.01 97.89,-65.15 157.324,-65.15 59.434,0 115.293,23.14 157.324,65.17 42.031,42.03 65.176,97.89 65.176,157.33 z m 342.149,-420.04 c 39.86,-39.87 39.86,-104.73 0,-144.59 -19.32,-19.32 -45,-29.96 -72.31,-29.96 -27.3,0 -52.98,10.64 -72.3,29.96 -0.86,0.84 -1.62,1.75 -2.3,2.73 l -249.692,360.27 c -47.11,-39.39 -105.918,-60.87 -168.047,-60.87 l 0,0 c -70.117,0 -136.035,27.3 -185.606,76.87 -49.57,49.59 -76.875,115.51 -76.875,185.63 0,70.09 27.305,136.01 76.895,185.6 49.57,49.57 115.488,76.88 185.605,76.88 70.118,0 136.036,-27.31 185.606,-76.88 49.59,-49.57 76.894,-115.49 76.875,-185.6 0,-62.13 -21.484,-120.94 -60.879,-168.05 l 360.278,-249.69 c 0.99,-0.68 1.91,-1.44 2.75,-2.3" />
            <path
               id="path198"
               style="fill:#2e3535;fill-opacity:1;fill-rule:nonzero;stroke:none"
               d="m 215.625,3407.25 -605.371,605.37 -101.699,-101.7 605.371,-605.37 101.699,101.7 z M 23.0469,3339.84 -202.91,3565.8 -343.496,3425.21 -120.352,3202.05 c 0.957,-0.96 1.797,-1.99 2.52,-3.09 L 23.0469,3339.84 Z M -145.547,3171.25 c -1.094,0.72 -2.129,1.56 -3.086,2.52 l -223.164,223.16 -135.312,-135.33 225.976,-225.96 135.586,135.61 z m -85.644,422.83 -225.957,225.98 -140.879,-140.88 c 1.093,-0.74 2.129,-1.56 3.086,-2.54 l 223.144,-223.14 140.606,140.58 z m -168.887,-168.87 -223.145,223.15 c -0.957,0.96 -1.797,2.01 -2.519,3.1 l -135.606,-135.6 225.957,-225.96 135.313,135.31 z m 303.5546,380.59 c 7.3632,22.27 15.2734,53.63 14.4336,83.77 -0.5079,18.09 -7.4415,35.51 -18.5352,46.6 -6.27,6.27 -12.988,9.53 -18.438,8.95 -7.011,-0.74 -17.519,-5.32 -24.023,-15.73 -6.992,-11.17 -7.422,-26.13 -1.23,-43.24 10.019,-27.73 31.464,-58.94 47.7926,-80.35 z m 46.4257,-46.17 c 32.4024,-25.25 86.8946,-64.71 124.961,-76.39 35.2347,-10.8 66.1327,-10.23 87.0317,1.62 11.875,6.74 19.726,16.76 22.734,28.97 3.535,14.45 1.309,37.71 -16.641,55.66 -14.316,14.32 -36.054,21.88 -62.89,21.9 -51.5042,-0.02 -116.6605,-18.87 -155.1957,-31.76 z M 258.047,3393.11 128.066,3263.13 c -7.812,-7.82 -20.468,-7.82 -28.2808,0 l -48.4571,48.43 -318.3201,-318.34 c -7.813,-7.81 -20.488,-7.81 -28.281,0 l -508.497,508.5 c -7.812,7.81 -7.812,20.47 0,28.28 l 318.321,318.34 -48.418,48.44 c -7.813,7.79 -7.813,20.47 0,28.28 l 129.98,129.98 c 7.813,7.81 20.469,7.81 28.282,0 l 201.953,-201.95 c -3.145,6.52 -5.977,13.04 -8.301,19.47 -10.352,28.67 -8.594,56.39 4.941,78.05 11.992,19.16 32.071,31.98 53.711,34.29 17.793,1.9 35.8987,-5.37 50.9572,-20.44 18.418,-18.41 29.4336,-45.3 30.2344,-73.76 0.918,-32.95 -6.5625,-66.05 -14.3164,-90.99 41.582,13.59 107.0508,31.66 161.5238,31.66 47.597,0 75.859,-18.26 91.172,-33.6 24.453,-24.43 35.117,-61.13 27.207,-93.45 -5.606,-22.86 -20.469,-42.11 -41.856,-54.24 -21.601,-12.27 -59.707,-23.11 -118.4765,-5.08 -16.5234,5.06 -35.1172,14.18 -53.73044,25.02 L 258.047,3421.39 c 7.812,-7.82 7.812,-20.47 0,-28.28" />
            <path
               id="path200"
               style="fill:#2e3535;fill-opacity:1;fill-rule:nonzero;stroke:none"
               d="m 1989.39,4063.34 c 0,-16.15 13.15,-29.3 29.3,-29.3 16.15,0 29.32,13.15 29.32,29.32 0,16.13 -13.17,29.28 -29.32,29.28 -16.15,0 -29.3,-13.15 -29.3,-29.3 z m -50,0 c 0,43.73 35.59,79.3 79.3,79.3 43.71,0 79.3,-35.57 79.32,-79.28 -0.02,-43.75 -35.61,-79.32 -79.32,-79.32 -43.71,0 -79.3,35.57 -79.3,79.3" />
            <path
               id="path202"
               style="fill:#2e3535;fill-opacity:1;fill-rule:nonzero;stroke:none"
               d="m 2142.54,3735.96 c 0,16.17 -13.15,29.31 -29.3,29.31 -16.13,-0.02 -29.29,-13.16 -29.29,-29.29 0,-16.18 13.14,-29.32 29.29,-29.32 16.15,0.02 29.3,13.14 29.3,29.3 z m 50,0 c 0,-43.69 -35.57,-79.28 -79.28,-79.3 0,0 0,0 -0.02,0 -43.71,0 -79.29,35.59 -79.29,79.32 0,43.69 35.56,79.25 79.27,79.29 43.75,0 79.32,-35.58 79.32,-79.31" />
            <path
               id="path204"
               style="fill:#2e3535;fill-opacity:1;fill-rule:nonzero;stroke:none"
               d="m 2260.21,4129.26 -423.84,-423.85 c -9.77,-9.77 -9.77,-25.59 0,-35.35 4.88,-4.88 11.29,-7.33 17.67,-7.33 6.41,0 12.8,2.45 17.68,7.33 l 423.85,423.85 c 9.76,9.76 9.76,25.58 0,35.35 -9.77,9.76 -25.59,9.76 -35.36,0" />
            <path
               id="path206"
               style="fill:#2e3535;fill-opacity:1;fill-rule:nonzero;stroke:none"
               d="m 2434.65,3899.65 c 0,206.62 -168.09,374.71 -374.71,374.71 -206.6,0 -374.71,-168.09 -374.71,-374.71 0,-206.62 168.11,-374.71 374.71,-374.71 206.62,0 374.71,168.09 374.71,374.71 z m 40,0 c 0,-228.67 -186.04,-414.71 -414.71,-414.71 -228.67,0 -414.71,186.04 -414.71,414.71 0,228.67 186.04,414.71 414.71,414.71 228.67,0 414.71,-186.04 414.71,-414.71" />
            <path
               id="path208"
               style="fill:#2e3535;fill-opacity:1;fill-rule:nonzero;stroke:none"
               d="m 994.922,3527.96 -555.82,-555.84 332.753,-228.75 451.835,451.83 -228.768,332.76 z m 248.498,-369.6 -440.9,-440.9 217.89,-217.88 440.88,440.9 -217.87,217.88 z m -243.811,420.66 c 5.921,-0.54 11.311,-3.7 14.671,-8.59 l 251.79,-366.29 c 3.11,-4.52 4.05,-9.9 3.11,-14.99 l 234.55,-234.53 c 7.79,-7.8 7.79,-20.48 0,-28.29 l -469.18,-469.17 c -7.81,-7.81 -20.49,-7.8 -28.28,0 l -244.864,244.85 -364.785,250.76 c -4.902,3.36 -8.047,8.74 -8.594,14.66 -0.527,5.91 1.582,11.78 5.782,15.98 l 589.843,589.83 c 4.2,4.2 10.059,6.31 15.957,5.78" />
            <path
               id="path210"
               style="fill:#2e3535;fill-opacity:1;fill-rule:nonzero;stroke:none"
               d="m 896.133,2726.69 -29.863,-29.86 24.433,-24.44 29.863,29.87 -24.433,24.43" />
            <path
               id="path212"
               style="fill:#2e3535;fill-opacity:1;fill-rule:nonzero;stroke:none"
               d="m 949.082,2779.64 -29.883,-29.87 24.434,-24.43 29.883,29.87 -24.434,24.43" />
            <path
               id="path214"
               style="fill:#2e3535;fill-opacity:1;fill-rule:nonzero;stroke:none"
               d="m 1002.03,2832.59 -29.882,-29.88 24.434,-24.42 29.878,29.87 -24.43,24.43" />
            <path
               id="path216"
               style="fill:#2e3535;fill-opacity:1;fill-rule:nonzero;stroke:none"
               d="m 1054.98,2885.54 -29.88,-29.87 24.43,-24.43 29.86,29.86 -24.41,24.44" />
            <path
               id="path218"
               style="fill:#2e3535;fill-opacity:1;fill-rule:nonzero;stroke:none"
               d="m 1107.91,2938.48 -29.84,-29.86 24.41,-24.43 29.86,29.85 -24.43,24.44" />
            <path
               id="path220"
               style="fill:#2e3535;fill-opacity:1;fill-rule:nonzero;stroke:none"
               d="m 1160.86,2991.43 -29.86,-29.88 24.43,-24.43 29.86,29.88 -24.43,24.43" />
            <path
               id="path222"
               style="fill:#2e3535;fill-opacity:1;fill-rule:nonzero;stroke:none"
               d="m 1213.81,3044.38 -29.86,-29.88 24.43,-24.42 29.86,29.87 -24.43,24.43" />
            <path
               id="path224"
               style="fill:#2e3535;fill-opacity:1;fill-rule:nonzero;stroke:none"
               d="m 1266.76,3097.31 -29.87,-29.86 24.44,-24.42 29.86,29.85 -24.43,24.43" />
            <path
               id="path226"
               style="fill:#2e3535;fill-opacity:1;fill-rule:nonzero;stroke:none"
               d="m 936.855,2685.96 -29.863,-29.87 24.434,-24.43 29.863,29.86 -24.434,24.44" />
            <path
               id="path228"
               style="fill:#2e3535;fill-opacity:1;fill-rule:nonzero;stroke:none"
               d="m 989.805,2738.91 -29.864,-29.88 24.434,-24.43 29.865,29.87 -24.435,24.44" />
            <path
               id="path230"
               style="fill:#2e3535;fill-opacity:1;fill-rule:nonzero;stroke:none"
               d="m 1042.75,2791.86 -29.86,-29.88 24.43,-24.43 29.87,29.87 -24.44,24.44" />
            <path
               id="path232"
               style="fill:#2e3535;fill-opacity:1;fill-rule:nonzero;stroke:none"
               d="m 1095.7,2844.79 -29.86,-29.86 24.43,-24.42 29.87,29.86 -24.44,24.42" />
            <path
               id="path234"
               style="fill:#2e3535;fill-opacity:1;fill-rule:nonzero;stroke:none"
               d="m 1148.65,2897.74 -29.86,-29.86 24.43,-24.42 29.87,29.85 -24.44,24.43" />
            <path
               id="path236"
               style="fill:#2e3535;fill-opacity:1;fill-rule:nonzero;stroke:none"
               d="m 1201.6,2950.69 -29.88,-29.87 24.43,-24.43 29.89,29.87 -24.44,24.43" />
            <path
               id="path238"
               style="fill:#2e3535;fill-opacity:1;fill-rule:nonzero;stroke:none"
               d="m 1254.55,3003.64 -29.86,-29.87 24.41,-24.43 29.88,29.87 -24.43,24.43" />
            <path
               id="path240"
               style="fill:#2e3535;fill-opacity:1;fill-rule:nonzero;stroke:none"
               d="m 977.598,2645.22 -29.864,-29.86 24.414,-24.43 29.882,29.87 -24.432,24.42" />
            <path
               id="path242"
               style="fill:#2e3535;fill-opacity:1;fill-rule:nonzero;stroke:none"
               d="m 1030.55,2698.17 -29.89,-29.86 24.44,-24.43 29.88,29.87 -24.43,24.42" />
            <path
               id="path244"
               style="fill:#2e3535;fill-opacity:1;fill-rule:nonzero;stroke:none"
               d="m 1083.5,2751.13 -29.89,-29.87 24.44,-24.43 29.88,29.87 -24.43,24.43" />
            <path
               id="path246"
               style="fill:#2e3535;fill-opacity:1;fill-rule:nonzero;stroke:none"
               d="m 1136.43,2804.07 -29.87,-29.86 24.44,-24.43 29.86,29.86 -24.43,24.43" />
            <path
               id="path248"
               style="fill:#2e3535;fill-opacity:1;fill-rule:nonzero;stroke:none"
               d="m 1189.38,2857.01 -29.87,-29.85 24.44,-24.44 29.86,29.87 -24.43,24.42" />
            <path
               id="path250"
               style="fill:#2e3535;fill-opacity:1;fill-rule:nonzero;stroke:none"
               d="m 1242.32,2909.97 -29.86,-29.87 24.43,-24.44 29.87,29.88 -24.44,24.43" />
            <path
               id="path252"
               style="fill:#2e3535;fill-opacity:1;fill-rule:nonzero;stroke:none"
               d="m 1307.48,3056.58 -29.84,-29.86 40.72,-40.72 -52.95,-52.95 24.43,-24.44 82.8,82.81 -65.16,65.16" />
            <path
               id="path254"
               style="fill:#2e3535;fill-opacity:1;fill-rule:nonzero;stroke:none"
               d="m 1018.32,2604.5 -29.863,-29.86 24.433,-24.43 29.86,29.86 -24.43,24.43" />
            <path
               id="path256"
               style="fill:#2e3535;fill-opacity:1;fill-rule:nonzero;stroke:none"
               d="m 1230.1,2816.29 -188.71,-188.71 24.43,-24.44 188.71,188.72 -24.43,24.43" />
            <path
               id="path258"
               style="fill:#2e3535;fill-opacity:1;fill-rule:nonzero;stroke:none"
               d="m 1283.05,2869.24 -29.87,-29.87 24.44,-24.44 29.86,29.87 -24.43,24.44" />
            <path
               id="path260"
               style="fill:#2e3535;fill-opacity:1;fill-rule:nonzero;stroke:none"
               d="m 1336,2922.19 -29.87,-29.88 24.44,-24.43 29.86,29.87 -24.43,24.44" />
            <path
               id="path262"
               style="fill:#2e3535;fill-opacity:1;fill-rule:nonzero;stroke:none"
               d="m 1383.52,2920.83 29.86,29.86 -24.43,24.44 -29.87,-29.87 24.44,-24.43" />
            <path
               id="path264"
               style="fill:#2e3535;fill-opacity:1;fill-rule:nonzero;stroke:none"
               d="m 714.16,2960.4 c 2.715,2.72 4.395,6.47 4.395,10.61 l 0,163.15 c 0,8.29 -6.719,15 -15,15 -8.282,0 -15,-6.71 -15,-15 l 0,-163.15 c 0,-8.29 6.718,-15 15,-15 4.14,0 7.89,1.68 10.605,4.39" />
            <path
               id="path266"
               style="fill:#2e3535;fill-opacity:1;fill-rule:nonzero;stroke:none"
               d="m 1009.92,3038.72 c 4.14,0 7.89,1.67 10.61,4.39 2.71,2.71 4.39,6.46 4.39,10.6 l 0,163.14 c 0,8.29 -6.72,15 -15,15 -8.3,0 -14.998,-6.71 -14.998,-15 l 0,-163.14 c 0,-8.28 6.698,-14.99 14.998,-14.99" />
            <path
               id="path268"
               style="fill:#2e3535;fill-opacity:1;fill-rule:nonzero;stroke:none"
               d="m 856.719,2916.24 c 4.16,0 7.91,1.68 10.605,4.39 2.715,2.72 4.395,6.47 4.395,10.61 l 0.019,361.69 c 0,8.28 -6.718,15 -15,15 -8.281,0 -15,-6.72 -15,-15 l -0.019,-361.69 c 0,-8.28 6.719,-15 15,-15" />
          </g>
        </g>
      </g>
    </pattern>
    <clipPath
       id="clipPath18"
       clipPathUnits="userSpaceOnUse">
      <path
         id="path16"
         d="M 0,4563 H 7815 V 0 H 0 Z" />
    </clipPath>
    <clipPath
       id="clipPath2024"
       clipPathUnits="userSpaceOnUse">
      <path
         d="m 2808.5015,13512.722 c -9.5302,-8.571 -21.0765,-18.771 -31.26,-27.861 51.3135,7.158 102.615,14.37 153.897,21.709 1.773,2.051 3.597,4.103 5.361,6.152 z m 5048.672,0 c 33.5452,-3.609 66.9127,-8.641 100.0342,-15.703 34.92,-7.445 12.2018,-75.968 -5.523,-106.963 -2.1585,-3.775 -4.6942,-2.075 -7.3095,2.359 -0.5325,-3.742 -1.707,-12.031 -2.2852,-16.114 2.9265,-6.445 5.9955,-12.796 9.0382,-19.028 30.8003,-63.09 66.3008,-123.703 102.5978,-183.911 v 339.36 z m -949.761,-530.083 c -39.7837,-0.214 -79.5705,-0.69 -119.3557,-1.215 30.009,-51.394 61.4602,-105.007 90.6007,-153.106 8.661,-1.456 17.4833,-2.87 26.2065,-4.307 0.8745,52.876 1.7498,105.751 2.5485,158.628 z m -2037.7588,-204.682 c -116.0363,0.354 -229.9845,-2.313 -300.234,-12.041 -207.63,-28.755 -401.748,-130.258 -615.498,-128.848 -171.456,-9.737 -342.6525,-26.655 -514.3657,-29.209 -90.0398,-1.339 -395.7442,8.965 -650.9325,17.915 -151.9935,-107.456 -279.8204,-177.486 -561.9869,-276.269 -23.3153,-8.163 -48.7238,28.871 -71.5283,19.379 -70.359,-29.283 -134.4442,-75.232 -189.4335,-127.998 -252.9067,-242.683 -517.8862,-558.174 -763.0522,-862.075 -452.16444,-759.951 -503.24469,-866.816 -872.31366,-1573.9595 5.3265,-8.3812 10.57425,-16.8141 15.92325,-25.1807 52.99349,-82.8835 106.31324,-165.5503 159.71174,-248.1738 154.63349,-62.3004 309.27073,-124.599 463.90047,-186.8994 282.189,-85.1199 516.585,-158.5076 728.0422,-223.5644 48.1065,1.8468 96.2115,3.6765 144.3165,5.5664 26.871,1.0558 54.4755,2.6049 82.353,4.087 144.9675,69.4323 258.1612,94.4927 284.9707,-2.6808 510.03,94.3691 1140.7919,175.1594 1773.9262,235.3125 34.5682,6.7394 69.159,13.3973 103.755,19.9952 188.0902,42.3752 376.5022,83.4757 566.1907,117.8466 24.612,4.4595 51.0105,9.4407 78.399,14.3115 27.0967,21.8358 57.7537,45.8973 94.3207,73.4473 284.2117,214.1269 215.0977,153.2445 508.1835,315.2051 74.8642,41.3699 148.4535,84.9776 222.6862,127.471 46.4618,32.519 99.783,56.973 139.3942,97.558 103.8653,106.421 187.3695,244.814 248.3055,392.154 -3.2955,336.886 -5.4082,673.753 -6.2257,1010.624 -216.9053,169.305 -357.723,275.204 -538.6957,477.129 -29.031,17.238 -56.7465,35.816 -82.7348,56.031 -85.3762,66.409 -143.0542,167.942 -186.006,277.251 -58.4565,30.218 -85.3672,112.033 -89.9265,295.063 -2.9625,11.131 -6.0435,22.835 -8.9505,33.516 -6.3825,32.599 -13.9882,68.368 -21.5182,105.219 -45.6143,0.913 -92.8125,1.669 -140.9767,1.817 z M -285.20327,11422.215 c -14.3595,-11.862 -28.59075,-23.59 -43.60875,-36.109 -142.25024,-118.583 -273.00898,-249.954 -403.10998,-382.06 v -203.189 c 92.23575,71.738 159.44399,165.698 224.61899,264.112 255.91423,386.431 191.20724,314.961 161.36699,278.525 9.507,12.085 25.65675,32.856 60.73275,78.721 z M -596.3655,10184.026 c -44.5545,-21.083 -88.836,-38.755 -135.5565,-56.089 v -84.96 c 0.09,-0.04 0.1875,-0.07 0.2775,-0.103 58.39125,60.696 101.12625,105.097 135.27825,141.152 z M 5119.6294,8837.7617 c -3.3975,-0.1845 -6.7373,-0.342 -10.137,-0.5273 -1.4138,-1.6215 -2.7743,-3.2529 -4.1745,-4.8779 0.405,0.1523 0.9015,0.3473 1.3035,0.498 4.3807,1.6392 8.6362,3.2686 13.008,4.9072 z m 672.3779,-983.0273 c -67.881,0.01 -135.8264,-0.1552 -203.7307,-0.234 121.6845,-38.9802 215.592,-64.8513 307.2217,-101.7627 5.0513,31.2357 11.838,65.1215 19.5998,101.9239 -34.2293,0.023 -55.0598,0.037 -123.0908,0.075 z m 1972.7489,-545.7272 c -10.2187,-0.105 -20.4457,-0.1125 -30.6735,-0.09 8.133,-41.6385 16.4925,-83.2372 25.488,-124.7017 1.6463,-7.5892 3.5243,-15.1222 5.5223,-22.617 -0.12,50.0228 -0.225,98.43 -0.3375,147.4072 z M -134.94003,5309.5539 c -10.785,-1.2585 -21.48975,-2.5455 -32.3145,-3.7943 -53.57625,-20.205 -110.37749,-41.6985 -170.03849,-64.365 9.87675,0.255 19.98525,0.5475 30.08775,0.8348 57.46274,22.3335 114.89399,44.7525 172.26524,67.3245 z"
         style="fill:#ff0000;fill-opacity:1;fill-rule:nonzero;stroke:none;stroke-width:7.5"
         id="path2026" />
    </clipPath>
  </defs>
  <sodipodi:namedview
     inkscape:window-maximized="0"
     inkscape:window-y="24"
     inkscape:window-x="0"
     inkscape:window-height="716"
     inkscape:window-width="1364"
     showgrid="false"
     inkscape:document-rotation="0"
     inkscape:current-layer="layer1"
     inkscape:document-units="mm"
     inkscape:cy="-95.742702"
     inkscape:cx="116.65171"
     inkscape:zoom="0.49497475"
     inkscape:pageshadow="2"
     inkscape:pageopacity="0.0"
     borderopacity="1.0"
     bordercolor="#666666"
     pagecolor="#ffffff"
     id="base" />
  <metadata
     id="metadata1132">
    <rdf:RDF>
      <cc:Work
         rdf:about="">
        <dc:format>image/svg+xml</dc:format>
        <dc:type
           rdf:resource="http://purl.org/dc/dcmitype/StillImage" />
        <dc:title></dc:title>
      </cc:Work>
    </rdf:RDF>
  </metadata>
  <g
     id="layer1"
     inkscape:groupmode="layer"
     inkscape:label="Layer 1">
    <path
       sodipodi:nodetypes="cssssscsc"
       d="m 58.090626,34.944753 -7.0714,-12.496536 c -0.3886,-0.686731 2.251829,11.841856 1.781981,11.207999 L 41.339778,18.193942 c -0.469771,-0.633755 0.662206,-1.241282 1.428696,-1.428638 L 71.971649,9.6270904 C 72.738216,9.4397161 51.019226,22.448217 59.519388,18.193942 V 33.51625 c 0,0.789007 -0.639627,1.428503 -1.428762,1.428503"
       style="fill:#fac00b;fill-opacity:1;fill-rule:nonzero;stroke:none;stroke-width:0.0128775"
       id="path74" />
    <path
       d="m 58.906916,37.855513 c 0,0.780208 -0.632235,1.412441 -1.411899,1.412441 -0.780212,0 -1.412168,-0.632233 -1.412168,-1.412441 0,-0.779665 0.631956,-1.412169 1.412168,-1.412169 0.779664,0 1.411899,0.632504 1.411899,1.412169"
       style="fill:#28418d;fill-opacity:1;fill-rule:nonzero;stroke:none;stroke-width:0.0272514"
       id="path114" />
    <text
       xml:space="preserve"
       id="text857"
       style="font-weight:500;font-stretch:ultra-condensed;font-size:10.5833px;line-height:1.25;font-family:GurbaniBoliLite;-inkscape-font-specification:'GurbaniBoliLite Medium Ultra-Condensed';white-space:pre;shape-inside:url(#rect859);" />
    <g
       transform="matrix(0.03527778,0,0,-0.03527778,-613.72116,163.2433)"
       id="g12">
      <text
         id="text88"
         style="font-variant:normal;font-weight:normal;font-size:440.12px;font-family:BebasNeueBold;-inkscape-font-specification:BebasNeueBold;writing-mode:lr-tb;fill:#3a57b3;fill-opacity:1;fill-rule:nonzero;stroke:#3a57b3;stroke-width:12.6491;stroke-miterlimit:4;stroke-dasharray:none;stroke-dashoffset:723.691;stroke-opacity:1"
         x="19408.146"
         y="-3761.9253"
         transform="scale(1,-1)"><tspan
           id="tspan86"
           sodipodi:role="line"
           style="font-style:normal;font-variant:normal;font-weight:bold;font-stretch:normal;font-size:440.12px;font-family:BebasNeueBold;-inkscape-font-specification:'BebasNeueBold Bold';fill:#3a57b3;fill-opacity:1;stroke:#3a57b3;stroke-width:12.6491;stroke-miterlimit:4;stroke-dasharray:none;stroke-dashoffset:723.691;stroke-opacity:1"
           x="19408.146"
           y="-3761.9253">Vintage</tspan></text>
    </g>
    <path
       id="path2028"
       style="fill:#28418d;fill-opacity:1;fill-rule:nonzero;stroke:none;stroke-width:0.0272514"
       d="m 53.711269,36.282224 c 0,0.780209 -0.632234,1.412442 -1.411897,1.412442 -0.780213,0 -1.412169,-0.632233 -1.412169,-1.412442 0,-0.779663 0.631956,-1.412169 1.412169,-1.412169 0.779663,0 1.411897,0.632506 1.411897,1.412169" />
  </g>
</svg>
