<?xml version="1.0" encoding="UTF-8" standalone="no"?>
<svg
   xmlns:dc="http://purl.org/dc/elements/1.1/"
   xmlns:cc="http://creativecommons.org/ns#"
   xmlns:rdf="http://www.w3.org/1999/02/22-rdf-syntax-ns#"
   xmlns:svg="http://www.w3.org/2000/svg"
   xmlns="http://www.w3.org/2000/svg"
   xmlns:sodipodi="http://sodipodi.sourceforge.net/DTD/sodipodi-0.dtd"
   xmlns:inkscape="http://www.inkscape.org/namespaces/inkscape"
   version="1.1"
   id="Capa_1"
   x="0px"
   y="0px"
   viewBox="0 0 512 512"
   style="enable-background:new 0 0 512 512;"
   xml:space="preserve"
   sodipodi:docname="chef.svg"
   inkscape:version="1.0.1 (3bc2e813f5, 2020-09-07)"><metadata
   id="metadata43"><rdf:RDF><cc:Work
       rdf:about=""><dc:format>image/svg+xml</dc:format><dc:type
         rdf:resource="http://purl.org/dc/dcmitype/StillImage" /></cc:Work></rdf:RDF></metadata><defs
   id="defs41" /><sodipodi:namedview
   pagecolor="#ffffff"
   bordercolor="#666666"
   borderopacity="1"
   objecttolerance="10"
   gridtolerance="10"
   guidetolerance="10"
   inkscape:pageopacity="0"
   inkscape:pageshadow="2"
   inkscape:window-width="781"
   inkscape:window-height="480"
   id="namedview39"
   showgrid="false"
   inkscape:zoom="1.078125"
   inkscape:cx="256"
   inkscape:cy="256"
   inkscape:window-x="0"
   inkscape:window-y="21"
   inkscape:window-maximized="0"
   inkscape:current-layer="Capa_1" />
<g
   id="g6"
   style="fill:#ffffff">
	<g
   id="g4"
   style="fill:#ffffff">
		<path
   d="M393.342,74.153c-10.829,0-21.442,1.437-31.702,4.28c-8.736-16.557-21.274-30.808-36.811-41.72    c-20.022-14.062-43.58-21.495-68.126-21.495c-24.656,0-48.301,7.494-68.378,21.672c-15.537,10.973-28.049,25.278-36.741,41.886    c-10.635-3.073-21.659-4.624-32.928-4.624C53.229,74.153,0,127.384,0,192.811c0,55.016,37.981,102.405,90.285,115.238v188.733    h331.511V308.029C474.052,295.162,512,247.78,512,192.811C512,127.384,458.771,74.153,393.342,74.153z M391.739,466.727H120.341    v-30.232h271.398V466.727z M404.84,280.672l-13.1,1.693v124.073H120.341V282.365l-13.114-1.685    c-43.995-5.651-77.171-43.426-77.171-87.869c0-48.855,39.746-88.603,88.602-88.603c12.176,0,23.955,2.417,35.008,7.182    l14.503,6.253l5.525-14.796c12.86-34.437,46.219-57.575,83.009-57.575c36.579,0,69.873,22.962,82.847,57.138l5.504,14.502    l14.32-5.96c10.752-4.476,22.181-6.745,33.967-6.745c48.855,0,88.602,39.747,88.602,88.603    C481.944,237.216,448.796,274.988,404.84,280.672z"
   id="path2"
   style="fill:#ffffff" />
	</g>
</g>
<g
   id="g8">
</g>
<g
   id="g10">
</g>
<g
   id="g12">
</g>
<g
   id="g14">
</g>
<g
   id="g16">
</g>
<g
   id="g18">
</g>
<g
   id="g20">
</g>
<g
   id="g22">
</g>
<g
   id="g24">
</g>
<g
   id="g26">
</g>
<g
   id="g28">
</g>
<g
   id="g30">
</g>
<g
   id="g32">
</g>
<g
   id="g34">
</g>
<g
   id="g36">
</g>
</svg>
